# MagicaVoxel @ Ephtracy

# group
o 

# material
mtllib Cell-0.mtl
usemtl palette

# normals
vn -1 0 0
vn 1 0 0
vn 0 0 1
vn 0 0 -1
vn 0 -1 0
vn 0 1 0

# texcoords
vt 0.505859 0.5
vt 0.958984 0.5
vt 0.962891 0.5
vt 0.970703 0.5
vt 0.974609 0.5
vt 0.978516 0.5
vt 0.982422 0.5
vt 0.994141 0.5

# verts
v -0.1 0.8 1.5
v -0.1 0.8 1.4
v -0.1 0.8 1.3
v -0.1 0.9 1.5
v -0.1 0.9 1.4
v -0.1 0.9 1.3
v -0.1 1 1.5
v -0.1 1 1.4
v -0.1 1 1.3
v -0.1 1.1 1.5
v -0.1 1.1 1.4
v -0.1 1.1 1.3
v -4.47035e-008 0.6 0.8
v -4.47035e-008 0.6 0.7
v -4.47035e-008 0.7 1.1
v -4.47035e-008 0.7 0.8
v -4.47035e-008 0.7 0.7
v -4.47035e-008 0.8 1.3
v -4.47035e-008 0.8 1.1
v -4.47035e-008 0.8 0.8
v -4.47035e-008 0.9 1.3
v -4.47035e-008 0.9 1.2
v -4.47035e-008 0.9 1.1
v -4.47035e-008 1 1.3
v -4.47035e-008 1 1.2
v -4.47035e-008 1.1 1.3
v -4.47035e-008 1.1 1.2
v 0.1 0.1 1.4
v 0.1 0.1 1.3
v 0.1 0.1 1.2
v 0.1 0.1 1.1
v 0.1 0.2 1.4
v 0.1 0.2 1.3
v 0.1 0.2 1.2
v 0.1 0.2 1.1
v 0.1 0.8 1.4
v 0.1 0.8 1.3
v 0.1 0.9 1.4
v 0.1 0.9 1.3
v 0.1 1 1.4
v 0.1 1 1.3
v 0.1 1.1 1.5
v 0.1 1.1 1.4
v 0.1 1.1 1.3
v 0.1 1.2 1.5
v 0.1 1.2 1.3
v 0.2 0.2 0.5
v 0.2 0.2 0.3
v 0.2 0.3 0.6
v 0.2 0.3 0.5
v 0.2 0.3 0.4
v 0.2 0.3 0.3
v 0.2 0.4 0.6
v 0.2 0.4 0.4
v 0.2 0.5 1.1
v 0.2 0.5 0.9
v 0.2 0.6 1.1
v 0.2 0.6 0.9
v 0.3 0.1 1.1
v 0.3 0.1 1
v 0.3 0.1 0.5
v 0.3 0.1 0.2
v 0.3 0.2 1.1
v 0.3 0.2 1
v 0.3 0.2 0.6
v 0.3 0.2 0.5
v 0.3 0.2 0.3
v 0.3 0.2 0.2
v 0.3 0.3 0.7
v 0.3 0.3 0.6
v 0.3 0.3 0.5
v 0.3 0.4 0.8
v 0.3 0.4 0.7
v 0.3 0.4 0.6
v 0.3 0.4 0.5
v 0.3 0.5 1.2
v 0.3 0.5 1.1
v 0.3 0.5 0.9
v 0.3 0.5 0.8
v 0.3 0.5 0.6
v 0.3 0.5 0.5
v 0.3 0.6 1.2
v 0.3 0.6 1.1
v 0.3 0.6 0.9
v 0.3 0.6 0.8
v 0.3 0.6 0.7
v 0.3 0.6 0.6
v 0.3 0.8 1.1
v 0.3 0.8 0.9
v 0.4 0.1 0.2
v 0.4 0.1 0.1
v 0.4 0.2 0.2
v 0.4 0.2 0.1
v 0.4 0.3 0.8
v 0.4 0.3 0.7
v 0.4 0.4 1.2
v 0.4 0.4 1.1
v 0.4 0.4 0.8
v 0.4 0.4 0.7
v 0.4 0.5 1.2
v 0.4 0.5 1.1
v 0.4 0.5 0.8
v 0.4 0.6 1.2
v 0.4 0.6 1.1
v 0.4 0.6 0.9
v 0.4 0.6 0.8
v 0.4 0.8 1.2
v 0.4 0.8 1.1
v 0.4 0.8 0.9
v 0.4 0.8 0.8
v 0.4 0.9 1.1
v 0.4 0.9 0.9
v 0.5 0.1 0.6
v 0.5 0.1 0.5
v 0.5 0.2 1.1
v 0.5 0.2 0.9
v 0.5 0.2 0.7
v 0.5 0.2 0.6
v 0.5 0.2 0.5
v 0.5 0.3 1.2
v 0.5 0.3 1.1
v 0.5 0.3 0.9
v 0.5 0.3 0.8
v 0.5 0.3 0.7
v 0.5 0.3 0.6
v 0.5 0.4 1.2
v 0.5 0.4 1.1
v 0.5 0.4 0.8
v 0.6 0.1 0.8
v 0.6 0.1 0.7
v 0.6 0.2 0.8
v 0.6 0.2 0.7
v 0.7 0.1 1.2
v 0.7 0.1 0.8
v 0.7 0.2 1.2
v 0.7 0.2 0.8
v -4.47035e-008 0.8 1.4
v -4.47035e-008 0.8 1.3
v -4.47035e-008 0.9 1.4
v -4.47035e-008 0.9 1.3
v -4.47035e-008 1 1.4
v -4.47035e-008 1 1.3
v -4.47035e-008 1.1 1.4
v -4.47035e-008 1.1 1.3
v 0.1 0.7 1.1
v 0.1 0.7 0.8
v 0.1 0.8 1.5
v 0.1 0.8 1.4
v 0.1 0.8 1.2
v 0.1 0.8 1.1
v 0.1 0.8 0.8
v 0.1 0.9 1.5
v 0.1 0.9 1.4
v 0.1 0.9 1.2
v 0.1 0.9 1.1
v 0.1 1 1.5
v 0.1 1 1.4
v 0.1 1.1 1.5
v 0.1 1.1 1.4
v 0.2 0.8 1.4
v 0.2 0.8 1.3
v 0.2 0.8 1.2
v 0.2 1 1.4
v 0.2 1 1.3
v 0.2 1 1.2
v 0.2 1.1 1.5
v 0.2 1.1 1.4
v 0.2 1.1 1.3
v 0.2 1.1 1.2
v 0.2 1.2 1.5
v 0.2 1.2 1.3
v 0.3 0.6 0.8
v 0.3 0.6 0.7
v 0.3 0.7 0.8
v 0.3 0.7 0.7
v 0.4 0.1 1.4
v 0.4 0.1 1.3
v 0.4 0.1 1.2
v 0.4 0.1 1.1
v 0.4 0.1 1
v 0.4 0.2 1.4
v 0.4 0.2 1.3
v 0.4 0.2 1.2
v 0.4 0.2 1.1
v 0.4 0.2 1
v 0.4 0.4 0.6
v 0.4 0.4 0.5
v 0.4 0.5 0.8
v 0.4 0.5 0.6
v 0.4 0.5 0.5
v 0.4 0.6 0.8
v 0.4 0.6 0.6
v 0.5 0.3 0.6
v 0.5 0.3 0.4
v 0.5 0.4 0.8
v 0.5 0.4 0.6
v 0.5 0.4 0.4
v 0.5 0.5 0.8
v 0.5 0.5 0.6
v 0.6 0.1 0.2
v 0.6 0.1 0.1
v 0.6 0.2 1.1
v 0.6 0.2 0.9
v 0.6 0.2 0.7
v 0.6 0.2 0.6
v 0.6 0.2 0.3
v 0.6 0.2 0.2
v 0.6 0.2 0.1
v 0.6 0.3 1.2
v 0.6 0.3 1.1
v 0.6 0.3 0.9
v 0.6 0.3 0.7
v 0.6 0.3 0.6
v 0.6 0.3 0.3
v 0.6 0.4 1.2
v 0.6 0.4 1.1
v 0.6 0.4 0.9
v 0.6 0.4 0.8
v 0.6 0.4 0.6
v 0.7 0.1 1.3
v 0.7 0.1 1.2
v 0.7 0.1 0.8
v 0.7 0.1 0.7
v 0.7 0.1 0.6
v 0.7 0.1 0.2
v 0.7 0.2 1.3
v 0.7 0.2 1.2
v 0.7 0.2 0.8
v 0.7 0.2 0.7
v 0.7 0.2 0.6
v 0.7 0.2 0.2
v 0.8 0.1 1.2
v 0.8 0.1 0.8
v 0.8 0.2 1.2
v 0.8 0.2 0.8
v 0.8 0.3 1.1
v 0.8 0.3 0.9
v 0.8 0.4 1.2
v 0.8 0.4 1.1
v 0.8 0.4 0.9
v 0.8 0.4 0.8
v 0.8 0.8 1.2
v 0.8 0.8 1.1
v 0.8 0.8 0.9
v 0.8 0.8 0.8
v 0.8 0.9 1.1
v 0.8 0.9 0.9
v 0.9 0.4 1.1
v 0.9 0.4 0.9
v 0.9 0.8 1.1
v 0.9 0.8 0.9
v -0.1 0.8 1.5
v -0.1 0.9 1.5
v -0.1 1 1.5
v -0.1 1.1 1.5
v -4.47035e-008 0.8 1.5
v -4.47035e-008 0.9 1.5
v 0.1 0.8 1.5
v 0.1 0.9 1.5
v 0.1 1 1.5
v 0.1 1.1 1.5
v 0.1 1.2 1.5
v 0.2 1.1 1.5
v 0.2 1.2 1.5
v 0.1 0.1 1.4
v 0.1 0.2 1.4
v 0.1 0.8 1.4
v 0.1 0.9 1.4
v 0.1 1 1.4
v 0.1 1.1 1.4
v 0.2 0.8 1.4
v 0.2 1 1.4
v 0.2 1.1 1.4
v 0.4 0.1 1.4
v 0.4 0.2 1.4
v -4.47035e-008 0.8 1.3
v -4.47035e-008 0.9 1.3
v -4.47035e-008 1 1.3
v -4.47035e-008 1.1 1.3
v 0.1 0.8 1.3
v 0.1 0.9 1.3
v 0.1 1 1.3
v 0.1 1.1 1.3
v 0.4 0.1 1.3
v 0.4 0.2 1.3
v 0.7 0.1 1.3
v 0.7 0.2 1.3
v 0.3 0.5 1.2
v 0.3 0.6 1.2
v 0.4 0.4 1.2
v 0.4 0.5 1.2
v 0.4 0.6 1.2
v 0.4 0.8 1.2
v 0.5 0.3 1.2
v 0.5 0.4 1.2
v 0.5 0.5 1.2
v 0.5 0.6 1.2
v 0.5 0.7 1.2
v 0.5 0.8 1.2
v 0.6 0.3 1.2
v 0.6 0.4 1.2
v 0.6 0.5 1.2
v 0.6 0.6 1.2
v 0.6 0.7 1.2
v 0.6 0.8 1.2
v 0.7 0.1 1.2
v 0.7 0.2 1.2
v 0.7 0.4 1.2
v 0.7 0.5 1.2
v 0.7 0.6 1.2
v 0.8 0.1 1.2
v 0.8 0.2 1.2
v 0.8 0.4 1.2
v 0.8 0.8 1.2
v -4.47035e-008 0.7 1.1
v -4.47035e-008 0.8 1.1
v 0.1 0.7 1.1
v 0.1 0.8 1.1
v 0.2 0.5 1.1
v 0.2 0.6 1.1
v 0.3 0.5 1.1
v 0.3 0.6 1.1
v 0.3 0.8 1.1
v 0.4 0.6 1.1
v 0.4 0.8 1.1
v 0.4 0.9 1.1
v 0.5 0.2 1.1
v 0.5 0.3 1.1
v 0.5 0.8 1.1
v 0.6 0.2 1.1
v 0.6 0.3 1.1
v 0.6 0.4 1.1
v 0.6 0.8 1.1
v 0.7 0.4 1.1
v 0.8 0.3 1.1
v 0.8 0.4 1.1
v 0.8 0.8 1.1
v 0.8 0.9 1.1
v 0.9 0.4 1.1
v 0.9 0.8 1.1
v -4.47035e-008 0.6 0.8
v -4.47035e-008 0.7 0.8
v 0.1 0.7 0.8
v 0.3 0.4 0.8
v 0.3 0.5 0.8
v 0.3 0.6 0.8
v 0.3 0.7 0.8
v 0.4 0.3 0.8
v 0.4 0.4 0.8
v 0.4 0.5 0.8
v 0.5 0.3 0.8
v 0.5 0.4 0.8
v 0.6 0.1 0.8
v 0.6 0.2 0.8
v 0.7 0.1 0.8
v 0.7 0.2 0.8
v 0.3 0.3 0.7
v 0.3 0.4 0.7
v 0.4 0.3 0.7
v 0.4 0.4 0.7
v 0.5 0.2 0.7
v 0.5 0.3 0.7
v 0.6 0.2 0.7
v 0.6 0.3 0.7
v 0.2 0.3 0.6
v 0.2 0.4 0.6
v 0.3 0.2 0.6
v 0.3 0.3 0.6
v 0.3 0.4 0.6
v 0.5 0.1 0.6
v 0.5 0.2 0.6
v 0.5 0.3 0.6
v 0.6 0.2 0.6
v 0.7 0.1 0.6
v 0.7 0.2 0.6
v 0.2 0.2 0.5
v 0.2 0.3 0.5
v 0.3 0.1 0.5
v 0.3 0.2 0.5
v 0.3 0.3 0.5
v 0.5 0.1 0.5
v 0.5 0.2 0.5
v -4.47035e-008 0.8 1.4
v -4.47035e-008 0.9 1.4
v -4.47035e-008 1 1.4
v -4.47035e-008 1.1 1.4
v 0.1 0.8 1.4
v 0.1 0.9 1.4
v 0.1 1 1.4
v 0.1 1.1 1.4
v -0.1 0.8 1.3
v -0.1 0.9 1.3
v -0.1 1 1.3
v -0.1 1.1 1.3
v -4.47035e-008 0.8 1.3
v -4.47035e-008 0.9 1.3
v -4.47035e-008 1 1.3
v -4.47035e-008 1.1 1.3
v 0.1 1.1 1.3
v 0.1 1.2 1.3
v 0.2 1.1 1.3
v 0.2 1.2 1.3
v -4.47035e-008 0.9 1.2
v -4.47035e-008 1 1.2
v -4.47035e-008 1.1 1.2
v 0.1 0.8 1.2
v 0.1 0.9 1.2
v 0.1 1 1.2
v 0.1 1.1 1.2
v 0.2 0.8 1.2
v 0.2 1 1.2
v 0.2 1.1 1.2
v 0.4 0.1 1.2
v 0.4 0.2 1.2
v 0.7 0.1 1.2
v 0.7 0.2 1.2
v -4.47035e-008 0.8 1.1
v -4.47035e-008 0.9 1.1
v 0.1 0.1 1.1
v 0.1 0.2 1.1
v 0.1 0.8 1.1
v 0.1 0.9 1.1
v 0.3 0.1 1.1
v 0.3 0.2 1.1
v 0.3 0.1 1
v 0.3 0.2 1
v 0.4 0.1 1
v 0.4 0.2 1
v 0.2 0.5 0.9
v 0.2 0.6 0.9
v 0.3 0.5 0.9
v 0.3 0.6 0.9
v 0.3 0.8 0.9
v 0.4 0.6 0.9
v 0.4 0.8 0.9
v 0.4 0.9 0.9
v 0.5 0.2 0.9
v 0.5 0.3 0.9
v 0.6 0.2 0.9
v 0.6 0.3 0.9
v 0.6 0.4 0.9
v 0.8 0.3 0.9
v 0.8 0.4 0.9
v 0.8 0.8 0.9
v 0.8 0.9 0.9
v 0.9 0.4 0.9
v 0.9 0.8 0.9
v -4.47035e-008 0.7 0.8
v -4.47035e-008 0.8 0.8
v 0.1 0.7 0.8
v 0.1 0.8 0.8
v 0.4 0.5 0.8
v 0.4 0.6 0.8
v 0.4 0.8 0.8
v 0.5 0.4 0.8
v 0.5 0.5 0.8
v 0.6 0.4 0.8
v 0.7 0.1 0.8
v 0.7 0.2 0.8
v 0.8 0.1 0.8
v 0.8 0.2 0.8
v 0.8 0.4 0.8
v 0.8 0.8 0.8
v -4.47035e-008 0.6 0.7
v -4.47035e-008 0.7 0.7
v 0.3 0.6 0.7
v 0.3 0.7 0.7
v 0.6 0.1 0.7
v 0.6 0.2 0.7
v 0.7 0.1 0.7
v 0.7 0.2 0.7
v 0.3 0.5 0.6
v 0.3 0.6 0.6
v 0.4 0.4 0.6
v 0.4 0.5 0.6
v 0.4 0.6 0.6
v 0.5 0.3 0.6
v 0.5 0.4 0.6
v 0.5 0.5 0.6
v 0.6 0.3 0.6
v 0.6 0.4 0.6
v 0.3 0.4 0.5
v 0.3 0.5 0.5
v 0.4 0.4 0.5
v 0.4 0.5 0.5
v 0.2 0.3 0.4
v 0.2 0.4 0.4
v 0.5 0.3 0.4
v 0.5 0.4 0.4
v 0.2 0.2 0.3
v 0.2 0.3 0.3
v 0.3 0.2 0.3
v 0.6 0.2 0.3
v 0.6 0.3 0.3
v 0.3 0.1 0.2
v 0.3 0.2 0.2
v 0.4 0.1 0.2
v 0.4 0.2 0.2
v 0.6 0.1 0.2
v 0.6 0.2 0.2
v 0.7 0.1 0.2
v 0.7 0.2 0.2
v 0.4 0.1 0.1
v 0.4 0.2 0.1
v 0.6 0.1 0.1
v 0.6 0.2 0.1
v 0.1 0.1 1.4
v 0.4 0.1 1.4
v 0.1 0.1 1.3
v 0.4 0.1 1.3
v 0.7 0.1 1.3
v 0.1 0.1 1.2
v 0.3 0.1 1.2
v 0.4 0.1 1.2
v 0.7 0.1 1.2
v 0.8 0.1 1.2
v 0.1 0.1 1.1
v 0.3 0.1 1.1
v 0.4 0.1 1.1
v 0.3 0.1 1
v 0.4 0.1 1
v 0.6 0.1 0.8
v 0.7 0.1 0.8
v 0.8 0.1 0.8
v 0.6 0.1 0.7
v 0.7 0.1 0.7
v 0.5 0.1 0.6
v 0.7 0.1 0.6
v 0.3 0.1 0.5
v 0.5 0.1 0.5
v 0.3 0.1 0.2
v 0.4 0.1 0.2
v 0.6 0.1 0.2
v 0.7 0.1 0.2
v 0.4 0.1 0.1
v 0.6 0.1 0.1
v 0.5 0.2 1.1
v 0.6 0.2 1.1
v 0.5 0.2 0.9
v 0.6 0.2 0.9
v 0.5 0.2 0.7
v 0.6 0.2 0.7
v 0.3 0.2 0.6
v 0.5 0.2 0.6
v 0.6 0.2 0.6
v 0.2 0.2 0.5
v 0.3 0.2 0.5
v 0.5 0.2 0.5
v 0.2 0.2 0.3
v 0.3 0.2 0.3
v 0.5 0.3 1.2
v 0.6 0.3 1.2
v 0.5 0.3 1.1
v 0.6 0.3 1.1
v 0.8 0.3 1.1
v 0.5 0.3 0.9
v 0.6 0.3 0.9
v 0.8 0.3 0.9
v 0.4 0.3 0.8
v 0.5 0.3 0.8
v 0.3 0.3 0.7
v 0.4 0.3 0.7
v 0.5 0.3 0.7
v 0.6 0.3 0.7
v 0.2 0.3 0.6
v 0.3 0.3 0.6
v 0.5 0.3 0.6
v 0.2 0.3 0.5
v 0.3 0.3 0.5
v 0.4 0.4 1.2
v 0.5 0.4 1.2
v 0.6 0.4 1.2
v 0.7 0.4 1.2
v 0.8 0.4 1.2
v 0.4 0.4 1.1
v 0.5 0.4 1.1
v 0.6 0.4 1.1
v 0.7 0.4 1.1
v 0.8 0.4 1.1
v 0.9 0.4 1.1
v 0.6 0.4 0.9
v 0.8 0.4 0.9
v 0.9 0.4 0.9
v 0.3 0.4 0.8
v 0.4 0.4 0.8
v 0.5 0.4 0.8
v 0.6 0.4 0.8
v 0.8 0.4 0.8
v 0.3 0.4 0.7
v 0.4 0.4 0.7
v 0.3 0.5 1.2
v 0.4 0.5 1.2
v 0.2 0.5 1.1
v 0.3 0.5 1.1
v 0.4 0.5 1.1
v 0.2 0.5 0.9
v 0.3 0.5 0.9
v 0.3 0.5 0.8
v 0.4 0.5 0.8
v -4.47035e-008 0.6 0.8
v 0.3 0.6 0.8
v -4.47035e-008 0.6 0.7
v 0.3 0.6 0.7
v -4.47035e-008 0.7 1.1
v 0.1 0.7 1.1
v -4.47035e-008 0.7 0.8
v 0.1 0.7 0.8
v -0.1 0.8 1.5
v -4.47035e-008 0.8 1.5
v 0.1 0.8 1.5
v -0.1 0.8 1.4
v -4.47035e-008 0.8 1.4
v 0.1 0.8 1.4
v 0.2 0.8 1.4
v -0.1 0.8 1.3
v -4.47035e-008 0.8 1.3
v 0.1 0.8 1.3
v 0.2 0.8 1.3
v 0.1 0.8 1.2
v 0.2 0.8 1.2
v -4.47035e-008 0.8 1.1
v 0.1 0.8 1.1
v -4.47035e-008 0.9 1.4
v 0.1 0.9 1.4
v -4.47035e-008 0.9 1.3
v 0.1 0.9 1.3
v 0.1 1.1 1.5
v 0.2 1.1 1.5
v 0.1 1.1 1.4
v 0.2 1.1 1.4
v 0.1 0.2 1.4
v 0.4 0.2 1.4
v 0.1 0.2 1.3
v 0.4 0.2 1.3
v 0.7 0.2 1.3
v 0.1 0.2 1.2
v 0.3 0.2 1.2
v 0.4 0.2 1.2
v 0.7 0.2 1.2
v 0.8 0.2 1.2
v 0.1 0.2 1.1
v 0.3 0.2 1.1
v 0.4 0.2 1.1
v 0.3 0.2 1
v 0.4 0.2 1
v 0.6 0.2 0.8
v 0.7 0.2 0.8
v 0.8 0.2 0.8
v 0.6 0.2 0.7
v 0.7 0.2 0.7
v 0.6 0.2 0.6
v 0.7 0.2 0.6
v 0.3 0.2 0.3
v 0.6 0.2 0.3
v 0.3 0.2 0.2
v 0.4 0.2 0.2
v 0.6 0.2 0.2
v 0.7 0.2 0.2
v 0.4 0.2 0.1
v 0.6 0.2 0.1
v 0.5 0.3 0.6
v 0.6 0.3 0.6
v 0.2 0.3 0.4
v 0.5 0.3 0.4
v 0.2 0.3 0.3
v 0.6 0.3 0.3
v 0.5 0.4 0.8
v 0.6 0.4 0.8
v 0.2 0.4 0.6
v 0.3 0.4 0.6
v 0.4 0.4 0.6
v 0.5 0.4 0.6
v 0.6 0.4 0.6
v 0.3 0.4 0.5
v 0.4 0.4 0.5
v 0.2 0.4 0.4
v 0.5 0.4 0.4
v 0.4 0.5 0.8
v 0.5 0.5 0.8
v 0.3 0.5 0.6
v 0.4 0.5 0.6
v 0.5 0.5 0.6
v 0.3 0.5 0.5
v 0.4 0.5 0.5
v 0.3 0.6 1.2
v 0.4 0.6 1.2
v 0.2 0.6 1.1
v 0.3 0.6 1.1
v 0.4 0.6 1.1
v 0.2 0.6 0.9
v 0.3 0.6 0.9
v 0.4 0.6 0.9
v 0.3 0.6 0.8
v 0.4 0.6 0.8
v 0.3 0.6 0.7
v 0.3 0.6 0.6
v 0.4 0.6 0.6
v -4.47035e-008 0.7 0.8
v 0.1 0.7 0.8
v 0.3 0.7 0.8
v -4.47035e-008 0.7 0.7
v 0.3 0.7 0.7
v 0.4 0.8 1.2
v 0.5 0.8 1.2
v 0.6 0.8 1.2
v 0.8 0.8 1.2
v -4.47035e-008 0.8 1.1
v 0.1 0.8 1.1
v 0.3 0.8 1.1
v 0.4 0.8 1.1
v 0.5 0.8 1.1
v 0.6 0.8 1.1
v 0.8 0.8 1.1
v 0.9 0.8 1.1
v 0.3 0.8 0.9
v 0.4 0.8 0.9
v 0.8 0.8 0.9
v 0.9 0.8 0.9
v -4.47035e-008 0.8 0.8
v 0.1 0.8 0.8
v 0.4 0.8 0.8
v 0.8 0.8 0.8
v -4.47035e-008 0.9 1.2
v 0.1 0.9 1.2
v -4.47035e-008 0.9 1.1
v 0.1 0.9 1.1
v 0.4 0.9 1.1
v 0.8 0.9 1.1
v 0.4 0.9 0.9
v 0.8 0.9 0.9
v -4.47035e-008 1 1.4
v 0.1 1 1.4
v -4.47035e-008 1 1.3
v 0.1 1 1.3
v -0.1 1.1 1.5
v 0.1 1.1 1.5
v -0.1 1.1 1.4
v -4.47035e-008 1.1 1.4
v 0.1 1.1 1.4
v -0.1 1.1 1.3
v -4.47035e-008 1.1 1.3
v 0.1 1.1 1.3
v 0.2 1.1 1.3
v -4.47035e-008 1.1 1.2
v 0.1 1.1 1.2
v 0.2 1.1 1.2
v 0.1 1.2 1.5
v 0.2 1.2 1.5
v 0.1 1.2 1.3
v 0.2 1.2 1.3

# faces
f 4/2/1 2/2/1 1/2/1
f 5/4/1 3/4/1 2/4/1
f 5/2/1 2/2/1 4/2/1
f 6/4/1 3/4/1 5/4/1
f 7/4/1 5/4/1 4/4/1
f 8/6/1 6/6/1 5/6/1
f 8/4/1 5/4/1 7/4/1
f 9/6/1 6/6/1 8/6/1
f 10/2/1 8/2/1 7/2/1
f 11/4/1 9/4/1 8/4/1
f 11/2/1 8/2/1 10/2/1
f 12/4/1 9/4/1 11/4/1
f 16/2/1 14/2/1 13/2/1
f 17/2/1 14/2/1 16/2/1
f 19/2/1 16/2/1 15/2/1
f 20/2/1 16/2/1 19/2/1
f 21/1/1 19/1/1 18/1/1
f 22/1/1 19/1/1 21/1/1
f 23/1/1 19/1/1 22/1/1
f 24/6/1 22/6/1 21/6/1
f 25/6/1 22/6/1 24/6/1
f 26/2/1 25/2/1 24/2/1
f 27/2/1 25/2/1 26/2/1
f 32/2/1 29/2/1 28/2/1
f 33/4/1 30/4/1 29/4/1
f 33/2/1 29/2/1 32/2/1
f 34/2/1 31/2/1 30/2/1
f 34/4/1 30/4/1 33/4/1
f 35/2/1 31/2/1 34/2/1
f 38/3/1 37/3/1 36/3/1
f 39/3/1 37/3/1 38/3/1
f 43/2/1 41/2/1 40/2/1
f 44/2/1 41/2/1 43/2/1
f 45/2/1 43/2/1 42/2/1
f 45/2/1 44/2/1 43/2/1
f 46/2/1 44/2/1 45/2/1
f 50/2/1 48/2/1 47/2/1
f 51/2/1 48/2/1 50/2/1
f 52/2/1 48/2/1 51/2/1
f 53/2/1 50/2/1 49/2/1
f 53/2/1 51/2/1 50/2/1
f 54/2/1 51/2/1 53/2/1
f 57/2/1 56/2/1 55/2/1
f 58/2/1 56/2/1 57/2/1
f 63/2/1 60/2/1 59/2/1
f 64/2/1 60/2/1 63/2/1
f 66/2/1 62/2/1 61/2/1
f 67/2/1 62/2/1 66/2/1
f 68/2/1 62/2/1 67/2/1
f 70/2/1 66/2/1 65/2/1
f 71/2/1 66/2/1 70/2/1
f 73/2/1 70/2/1 69/2/1
f 74/2/1 70/2/1 73/2/1
f 79/2/1 73/2/1 72/2/1
f 79/2/1 74/2/1 73/2/1
f 79/2/1 75/2/1 74/2/1
f 80/2/1 75/2/1 79/2/1
f 81/2/1 75/2/1 80/2/1
f 82/2/1 77/2/1 76/2/1
f 83/2/1 77/2/1 82/2/1
f 84/2/1 79/2/1 78/2/1
f 84/2/1 80/2/1 79/2/1
f 85/2/1 80/2/1 84/2/1
f 86/2/1 80/2/1 85/2/1
f 87/2/1 80/2/1 86/2/1
f 88/2/1 84/2/1 83/2/1
f 89/2/1 84/2/1 88/2/1
f 92/2/1 91/2/1 90/2/1
f 93/2/1 91/2/1 92/2/1
f 98/2/1 95/2/1 94/2/1
f 99/2/1 95/2/1 98/2/1
f 100/8/1 97/8/1 96/8/1
f 101/2/1 98/2/1 97/2/1
f 101/8/1 97/8/1 100/8/1
f 102/2/1 98/2/1 101/2/1
f 107/8/1 104/8/1 103/8/1
f 108/8/1 104/8/1 107/8/1
f 109/2/1 106/2/1 105/2/1
f 110/2/1 106/2/1 109/2/1
f 111/2/1 109/2/1 108/2/1
f 112/2/1 109/2/1 111/2/1
f 118/2/1 114/2/1 113/2/1
f 119/2/1 114/2/1 118/2/1
f 121/2/1 116/2/1 115/2/1
f 122/2/1 116/2/1 121/2/1
f 124/2/1 118/2/1 117/2/1
f 125/2/1 118/2/1 124/2/1
f 126/2/1 123/2/1 122/2/1
f 126/2/1 121/2/1 120/2/1
f 126/2/1 122/2/1 121/2/1
f 127/2/1 123/2/1 126/2/1
f 128/2/1 123/2/1 127/2/1
f 131/2/1 130/2/1 129/2/1
f 132/2/1 130/2/1 131/2/1
f 135/2/1 134/2/1 133/2/1
f 136/2/1 134/2/1 135/2/1
f 137/4/2 138/4/2 139/4/2
f 139/4/2 138/4/2 140/4/2
f 141/4/2 142/4/2 143/4/2
f 143/4/2 142/4/2 144/4/2
f 145/2/2 146/2/2 150/2/2
f 150/2/2 146/2/2 151/2/2
f 147/5/2 148/5/2 152/5/2
f 152/5/2 148/5/2 153/5/2
f 149/1/2 150/1/2 154/1/2
f 154/1/2 150/1/2 155/1/2
f 152/4/2 153/4/2 156/4/2
f 156/4/2 153/4/2 157/4/2
f 156/2/2 157/2/2 158/2/2
f 158/2/2 157/2/2 159/2/2
f 160/3/2 161/3/2 163/3/2
f 161/6/2 162/6/2 164/6/2
f 163/3/2 161/3/2 164/3/2
f 164/6/2 162/6/2 165/6/2
f 163/2/2 164/2/2 167/2/2
f 164/4/2 165/4/2 168/4/2
f 167/2/2 164/2/2 168/2/2
f 168/4/2 165/4/2 169/4/2
f 166/2/2 167/2/2 170/2/2
f 167/2/2 168/2/2 170/2/2
f 170/2/2 168/2/2 171/2/2
f 172/2/2 173/2/2 174/2/2
f 174/2/2 173/2/2 175/2/2
f 176/2/2 177/2/2 181/2/2
f 181/2/2 177/2/2 182/2/2
f 178/5/2 179/5/2 183/5/2
f 179/2/2 180/2/2 184/2/2
f 183/5/2 179/5/2 184/5/2
f 184/2/2 180/2/2 185/2/2
f 186/2/2 187/2/2 189/2/2
f 189/2/2 187/2/2 190/2/2
f 188/2/2 189/2/2 191/2/2
f 191/2/2 189/2/2 192/2/2
f 193/2/2 194/2/2 196/2/2
f 196/2/2 194/2/2 197/2/2
f 195/2/2 196/2/2 198/2/2
f 198/2/2 196/2/2 199/2/2
f 200/2/2 201/2/2 207/2/2
f 207/2/2 201/2/2 208/2/2
f 202/2/2 203/2/2 210/2/2
f 210/2/2 203/2/2 211/2/2
f 205/2/2 206/2/2 212/2/2
f 204/2/2 205/2/2 212/2/2
f 212/2/2 206/2/2 213/2/2
f 213/2/2 206/2/2 214/2/2
f 209/2/2 210/2/2 215/2/2
f 215/2/2 210/2/2 216/2/2
f 212/2/2 213/2/2 217/2/2
f 211/2/2 212/2/2 217/2/2
f 217/2/2 213/2/2 218/2/2
f 218/2/2 213/2/2 219/2/2
f 220/2/2 221/2/2 226/2/2
f 226/2/2 221/2/2 227/2/2
f 222/2/2 223/2/2 228/2/2
f 228/2/2 223/2/2 229/2/2
f 224/2/2 225/2/2 230/2/2
f 230/2/2 225/2/2 231/2/2
f 232/2/2 233/2/2 234/2/2
f 234/2/2 233/2/2 235/2/2
f 236/2/2 237/2/2 239/2/2
f 239/2/2 237/2/2 240/2/2
f 238/2/2 239/2/2 242/2/2
f 242/2/2 239/2/2 243/2/2
f 240/2/2 241/2/2 244/2/2
f 244/2/2 241/2/2 245/2/2
f 243/2/2 244/2/2 246/2/2
f 246/2/2 244/2/2 247/2/2
f 248/2/2 249/2/2 250/2/2
f 250/2/2 249/2/2 251/2/2
f 256/2/3 253/2/3 252/2/3
f 257/4/3 254/4/3 253/4/3
f 257/2/3 253/2/3 256/2/3
f 258/5/3 257/5/3 256/5/3
f 259/4/3 254/4/3 257/4/3
f 259/5/3 257/5/3 258/5/3
f 260/2/3 255/2/3 254/2/3
f 260/4/3 254/4/3 259/4/3
f 261/2/3 255/2/3 260/2/3
f 263/2/3 262/2/3 261/2/3
f 264/2/3 262/2/3 263/2/3
f 271/3/3 268/3/3 267/3/3
f 271/3/3 269/3/3 268/3/3
f 272/2/3 270/2/3 269/2/3
f 272/3/3 269/3/3 271/3/3
f 273/2/3 270/2/3 272/2/3
f 274/2/3 266/2/3 265/2/3
f 275/2/3 266/2/3 274/2/3
f 280/1/3 277/1/3 276/1/3
f 281/1/3 277/1/3 280/1/3
f 282/2/3 279/2/3 278/2/3
f 283/2/3 279/2/3 282/2/3
f 286/2/3 285/2/3 284/2/3
f 287/2/3 285/2/3 286/2/3
f 291/2/3 289/2/3 288/2/3
f 292/2/3 289/2/3 291/2/3
f 295/8/3 291/8/3 290/8/3
f 296/2/3 292/2/3 291/2/3
f 296/8/3 291/8/3 295/8/3
f 297/8/3 293/8/3 292/8/3
f 297/2/3 292/2/3 296/2/3
f 298/8/3 293/8/3 297/8/3
f 299/8/3 293/8/3 298/8/3
f 300/2/3 296/2/3 295/2/3
f 300/2/3 295/2/3 294/2/3
f 300/2/3 297/2/3 296/2/3
f 301/2/3 297/2/3 300/2/3
f 302/2/3 297/2/3 301/2/3
f 303/6/3 298/6/3 297/6/3
f 303/2/3 297/2/3 302/2/3
f 304/7/3 299/7/3 298/7/3
f 304/6/3 298/6/3 303/6/3
f 305/7/3 299/7/3 304/7/3
f 308/6/3 302/6/3 301/6/3
f 309/8/3 303/8/3 302/8/3
f 309/6/3 302/6/3 308/6/3
f 310/2/3 304/2/3 303/2/3
f 310/8/3 303/8/3 309/8/3
f 310/2/3 305/2/3 304/2/3
f 311/2/3 307/2/3 306/2/3
f 312/2/3 307/2/3 311/2/3
f 313/2/3 309/2/3 308/2/3
f 313/2/3 310/2/3 309/2/3
f 314/2/3 305/2/3 310/2/3
f 314/2/3 310/2/3 313/2/3
f 317/2/3 316/2/3 315/2/3
f 318/2/3 316/2/3 317/2/3
f 321/2/3 320/2/3 319/2/3
f 322/2/3 320/2/3 321/2/3
f 324/2/3 323/2/3 322/2/3
f 325/2/3 323/2/3 324/2/3
f 329/2/3 326/2/3 325/2/3
f 330/2/3 328/2/3 327/2/3
f 331/2/3 328/2/3 330/2/3
f 333/2/3 326/2/3 329/2/3
f 334/2/3 332/2/3 331/2/3
f 335/2/3 334/2/3 331/2/3
f 336/2/3 334/2/3 335/2/3
f 337/2/3 326/2/3 333/2/3
f 338/2/3 326/2/3 337/2/3
f 339/2/3 337/2/3 336/2/3
f 340/2/3 337/2/3 339/2/3
f 343/2/3 342/2/3 341/2/3
f 346/2/3 343/2/3 341/2/3
f 347/2/3 343/2/3 346/2/3
f 349/2/3 345/2/3 344/2/3
f 350/2/3 345/2/3 349/2/3
f 351/2/3 349/2/3 348/2/3
f 352/2/3 349/2/3 351/2/3
f 355/2/3 354/2/3 353/2/3
f 356/2/3 354/2/3 355/2/3
f 359/2/3 358/2/3 357/2/3
f 360/2/3 358/2/3 359/2/3
f 363/2/3 362/2/3 361/2/3
f 364/2/3 362/2/3 363/2/3
f 368/2/3 366/2/3 365/2/3
f 369/2/3 366/2/3 368/2/3
f 371/2/3 368/2/3 367/2/3
f 372/2/3 368/2/3 371/2/3
f 373/2/3 371/2/3 370/2/3
f 374/2/3 373/2/3 370/2/3
f 375/2/3 373/2/3 374/2/3
f 379/2/3 377/2/3 376/2/3
f 380/2/3 377/2/3 379/2/3
f 381/2/3 379/2/3 378/2/3
f 382/2/3 379/2/3 381/2/3
f 383/5/4 384/5/4 387/5/4
f 387/5/4 384/5/4 388/5/4
f 385/2/4 386/2/4 389/2/4
f 389/2/4 386/2/4 390/2/4
f 391/4/4 392/4/4 395/4/4
f 392/6/4 393/6/4 396/6/4
f 395/4/4 392/4/4 396/4/4
f 393/4/4 394/4/4 397/4/4
f 396/6/4 393/6/4 397/6/4
f 397/4/4 394/4/4 398/4/4
f 399/2/4 400/2/4 401/2/4
f 401/2/4 400/2/4 402/2/4
f 403/6/4 404/6/4 407/6/4
f 404/2/4 405/2/4 408/2/4
f 407/6/4 404/6/4 408/6/4
f 408/2/4 405/2/4 409/2/4
f 406/6/4 407/6/4 410/6/4
f 407/6/4 408/6/4 410/6/4
f 408/4/4 409/4/4 411/4/4
f 410/6/4 408/6/4 411/6/4
f 411/4/4 409/4/4 412/4/4
f 413/2/4 414/2/4 415/2/4
f 415/2/4 414/2/4 416/2/4
f 417/1/4 418/1/4 421/1/4
f 421/1/4 418/1/4 422/1/4
f 419/2/4 420/2/4 423/2/4
f 423/2/4 420/2/4 424/2/4
f 425/2/4 426/2/4 427/2/4
f 427/2/4 426/2/4 428/2/4
f 429/2/4 430/2/4 431/2/4
f 431/2/4 430/2/4 432/2/4
f 432/2/4 433/2/4 434/2/4
f 434/2/4 433/2/4 435/2/4
f 437/2/4 438/2/4 439/2/4
f 439/2/4 438/2/4 440/2/4
f 440/2/4 441/2/4 442/2/4
f 442/2/4 441/2/4 443/2/4
f 435/2/4 436/2/4 444/2/4
f 444/2/4 436/2/4 445/2/4
f 443/2/4 444/2/4 446/2/4
f 446/2/4 444/2/4 447/2/4
f 448/2/4 449/2/4 450/2/4
f 450/2/4 449/2/4 451/2/4
f 452/2/4 453/2/4 456/2/4
f 453/2/4 454/2/4 456/2/4
f 455/2/4 456/2/4 457/2/4
f 458/2/4 459/2/4 460/2/4
f 460/2/4 459/2/4 461/2/4
f 457/2/4 456/2/4 462/2/4
f 456/2/4 454/2/4 463/2/4
f 462/2/4 456/2/4 463/2/4
f 464/2/4 465/2/4 466/2/4
f 466/2/4 465/2/4 467/2/4
f 468/2/4 469/2/4 470/2/4
f 470/2/4 469/2/4 471/2/4
f 472/2/4 473/2/4 475/2/4
f 475/2/4 473/2/4 476/2/4
f 474/2/4 475/2/4 478/2/4
f 478/2/4 475/2/4 479/2/4
f 477/2/4 478/2/4 480/2/4
f 480/2/4 478/2/4 481/2/4
f 482/2/4 483/2/4 484/2/4
f 484/2/4 483/2/4 485/2/4
f 486/2/4 487/2/4 488/2/4
f 488/2/4 487/2/4 489/2/4
f 490/2/4 491/2/4 492/2/4
f 492/2/4 491/2/4 493/2/4
f 493/2/4 491/2/4 494/2/4
f 495/2/4 496/2/4 497/2/4
f 497/2/4 496/2/4 498/2/4
f 499/2/4 500/2/4 501/2/4
f 501/2/4 500/2/4 502/2/4
f 503/2/4 504/2/4 505/2/4
f 505/2/4 504/2/4 506/2/4
f 509/2/5 508/2/5 507/2/5
f 510/2/5 508/2/5 509/2/5
f 512/4/5 510/4/5 509/4/5
f 513/4/5 510/4/5 512/4/5
f 514/2/5 511/2/5 510/2/5
f 514/4/5 510/4/5 513/4/5
f 515/2/5 511/2/5 514/2/5
f 517/2/5 513/2/5 512/2/5
f 518/5/5 514/5/5 513/5/5
f 518/2/5 513/2/5 517/2/5
f 519/5/5 514/5/5 518/5/5
f 520/2/5 519/2/5 518/2/5
f 521/2/5 519/2/5 520/2/5
f 523/2/5 516/2/5 515/2/5
f 524/2/5 516/2/5 523/2/5
f 525/2/5 523/2/5 522/2/5
f 526/2/5 523/2/5 525/2/5
f 530/2/5 528/2/5 527/2/5
f 531/2/5 530/2/5 529/2/5
f 532/2/5 530/2/5 531/2/5
f 533/2/5 528/2/5 530/2/5
f 533/2/5 530/2/5 532/2/5
f 534/2/5 528/2/5 533/2/5
f 535/2/5 533/2/5 532/2/5
f 536/2/5 533/2/5 535/2/5
f 539/2/5 538/2/5 537/2/5
f 540/2/5 538/2/5 539/2/5
f 544/2/5 542/2/5 541/2/5
f 545/2/5 542/2/5 544/2/5
f 547/2/5 544/2/5 543/2/5
f 548/2/5 544/2/5 547/2/5
f 549/2/5 547/2/5 546/2/5
f 550/2/5 547/2/5 549/2/5
f 553/2/5 552/2/5 551/2/5
f 554/2/5 552/2/5 553/2/5
f 557/2/5 555/2/5 554/2/5
f 558/2/5 555/2/5 557/2/5
f 560/2/5 557/2/5 556/2/5
f 562/2/5 560/2/5 559/2/5
f 563/2/5 557/2/5 560/2/5
f 563/2/5 560/2/5 562/2/5
f 564/2/5 557/2/5 563/2/5
f 566/2/5 562/2/5 561/2/5
f 566/2/5 563/2/5 562/2/5
f 567/2/5 563/2/5 566/2/5
f 568/2/5 566/2/5 565/2/5
f 569/2/5 566/2/5 568/2/5
f 575/8/5 571/8/5 570/8/5
f 576/8/5 571/8/5 575/8/5
f 577/6/5 573/6/5 572/6/5
f 578/2/5 574/2/5 573/2/5
f 578/6/5 573/6/5 577/6/5
f 579/2/5 574/2/5 578/2/5
f 582/2/5 580/2/5 579/2/5
f 583/2/5 580/2/5 582/2/5
f 585/2/5 576/2/5 575/2/5
f 586/2/5 576/2/5 585/2/5
f 587/2/5 582/2/5 581/2/5
f 588/2/5 582/2/5 587/2/5
f 589/2/5 585/2/5 584/2/5
f 590/2/5 585/2/5 589/2/5
f 594/2/5 592/2/5 591/2/5
f 595/2/5 592/2/5 594/2/5
f 596/2/5 594/2/5 593/2/5
f 596/2/5 595/2/5 594/2/5
f 597/2/5 595/2/5 596/2/5
f 598/2/5 595/2/5 597/2/5
f 599/2/5 595/2/5 598/2/5
f 602/2/5 601/2/5 600/2/5
f 603/2/5 601/2/5 602/2/5
f 606/2/5 605/2/5 604/2/5
f 607/2/5 605/2/5 606/2/5
f 611/2/5 609/2/5 608/2/5
f 612/5/5 610/5/5 609/5/5
f 612/2/5 609/2/5 611/2/5
f 613/5/5 610/5/5 612/5/5
f 615/4/5 612/4/5 611/4/5
f 616/4/5 612/4/5 615/4/5
f 617/3/5 614/3/5 613/3/5
f 618/3/5 614/3/5 617/3/5
f 619/1/5 617/1/5 616/1/5
f 619/6/5 618/6/5 617/6/5
f 620/6/5 618/6/5 619/6/5
f 621/1/5 619/1/5 616/1/5
f 622/1/5 619/1/5 621/1/5
f 625/1/5 624/1/5 623/1/5
f 626/1/5 624/1/5 625/1/5
f 629/2/5 628/2/5 627/2/5
f 630/2/5 628/2/5 629/2/5
f 631/2/6 632/2/6 633/2/6
f 633/2/6 632/2/6 634/2/6
f 633/4/6 634/4/6 636/4/6
f 636/4/6 634/4/6 637/4/6
f 634/2/6 635/2/6 638/2/6
f 637/4/6 634/4/6 638/4/6
f 638/2/6 635/2/6 639/2/6
f 636/2/6 637/2/6 641/2/6
f 637/5/6 638/5/6 642/5/6
f 641/2/6 637/2/6 642/2/6
f 642/5/6 638/5/6 643/5/6
f 642/2/6 643/2/6 644/2/6
f 644/2/6 643/2/6 645/2/6
f 639/2/6 640/2/6 647/2/6
f 647/2/6 640/2/6 648/2/6
f 646/2/6 647/2/6 649/2/6
f 649/2/6 647/2/6 650/2/6
f 651/2/6 652/2/6 654/2/6
f 653/2/6 654/2/6 655/2/6
f 655/2/6 654/2/6 656/2/6
f 654/2/6 652/2/6 657/2/6
f 656/2/6 654/2/6 657/2/6
f 657/2/6 652/2/6 658/2/6
f 656/2/6 657/2/6 659/2/6
f 659/2/6 657/2/6 660/2/6
f 661/2/6 662/2/6 664/2/6
f 663/2/6 664/2/6 665/2/6
f 664/2/6 662/2/6 666/2/6
f 665/2/6 664/2/6 666/2/6
f 667/2/6 668/2/6 672/2/6
f 672/2/6 668/2/6 673/2/6
f 669/2/6 670/2/6 674/2/6
f 671/2/6 672/2/6 675/2/6
f 669/2/6 674/2/6 676/2/6
f 674/2/6 675/2/6 676/2/6
f 675/2/6 672/2/6 677/2/6
f 676/2/6 675/2/6 677/2/6
f 678/2/6 679/2/6 681/2/6
f 681/2/6 679/2/6 682/2/6
f 680/2/6 681/2/6 683/2/6
f 683/2/6 681/2/6 684/2/6
f 685/2/6 686/2/6 688/2/6
f 688/2/6 686/2/6 689/2/6
f 687/2/6 688/2/6 690/2/6
f 690/2/6 688/2/6 691/2/6
f 691/2/6 692/2/6 693/2/6
f 693/2/6 692/2/6 694/2/6
f 693/2/6 694/2/6 695/2/6
f 695/2/6 694/2/6 696/2/6
f 696/2/6 694/2/6 697/2/6
f 698/2/6 699/2/6 701/2/6
f 699/2/6 700/2/6 701/2/6
f 701/2/6 700/2/6 702/2/6
f 703/8/6 704/8/6 710/8/6
f 704/7/6 705/7/6 711/7/6
f 710/8/6 704/8/6 711/8/6
f 705/2/6 706/2/6 712/2/6
f 711/7/6 705/7/6 712/7/6
f 712/2/6 706/2/6 713/2/6
f 709/2/6 710/2/6 715/2/6
f 715/2/6 710/2/6 716/2/6
f 713/2/6 714/2/6 717/2/6
f 717/2/6 714/2/6 718/2/6
f 707/2/6 708/2/6 719/2/6
f 719/2/6 708/2/6 720/2/6
f 716/2/6 717/2/6 721/2/6
f 721/2/6 717/2/6 722/2/6
f 723/1/6 724/1/6 725/1/6
f 725/1/6 724/1/6 726/1/6
f 727/2/6 728/2/6 729/2/6
f 729/2/6 728/2/6 730/2/6
f 731/1/6 732/1/6 733/1/6
f 733/1/6 732/1/6 734/1/6
f 735/2/6 736/2/6 737/2/6
f 737/2/6 736/2/6 738/2/6
f 738/2/6 736/2/6 739/2/6
f 737/4/6 738/4/6 740/4/6
f 740/4/6 738/4/6 741/4/6
f 741/2/6 742/2/6 744/2/6
f 742/4/6 743/4/6 745/4/6
f 744/2/6 742/2/6 745/2/6
f 745/4/6 743/4/6 746/4/6
f 747/2/6 748/2/6 749/2/6
f 749/2/6 748/2/6 750/2/6
