# MagicaVoxel @ Ephtracy

# group
o GoldCross

# material
mtllib GoldCross-1-GoldCross.mtl
usemtl palette

# normals
vn -1 0 0
vn 1 0 0
vn 0 -1 0
vn 0 1 0
vn 0 0 -1
vn 0 0 1

# texcoords
vt 0.185547 0.5
vt 0.349609 0.5
vt 0.513672 0.5

# verts
v -0.6 1.1 -0.1
v -0.6 1.2 -0.1
v -0.6 1.1 0
v -0.6 1.2 0
v -0.5 1 -0.1
v -0.5 1.1 -0.1
v -0.5 1.2 -0.1
v -0.5 1.3 -0.1
v -0.5 1 0
v -0.5 1.1 0
v -0.5 1.2 0
v -0.5 1.3 0
v -0.4 0.9 -0.1
v -0.4 1 -0.1
v -0.4 1.3 -0.1
v -0.4 1.4 -0.1
v -0.4 0.9 0
v -0.4 1 0
v -0.4 1.3 0
v -0.4 1.4 0
v -0.2 0.2 -0.1
v -0.2 0.3 -0.1
v -0.2 1.5 -0.1
v -0.2 1.6 -0.1
v -0.2 0.2 0
v -0.2 0.3 0
v -0.2 1.5 0
v -0.2 1.6 0
v -0.1 0.1 -0.1
v -0.1 0.2 -0.1
v -0.1 0.3 -0.1
v -0.1 0.9 -0.1
v -0.1 1 -0.1
v -0.1 1.1 -0.1
v -0.1 1.2 -0.1
v -0.1 1.3 -0.1
v -0.1 1.4 -0.1
v -0.1 1.5 -0.1
v -0.1 1.6 -0.1
v -0.1 1.7 -0.1
v -0.1 0.1 0
v -0.1 0.2 0
v -0.1 0.3 0
v -0.1 0.9 0
v -0.1 1 0
v -0.1 1.1 0
v -0.1 1.2 0
v -0.1 1.3 0
v -0.1 1.4 0
v -0.1 1.5 0
v -0.1 1.6 0
v -0.1 1.7 0
v -5.96046e-008 0.4 -0.2
v -5.96046e-008 0.8 -0.2
v -5.96046e-008 0.9 -0.2
v -5.96046e-008 0 -0.1
v -5.96046e-008 0.1 -0.1
v -5.96046e-008 0.4 -0.1
v -5.96046e-008 0.8 -0.1
v -5.96046e-008 0.9 -0.1
v -5.96046e-008 1 -0.1
v -5.96046e-008 1.3 -0.1
v -5.96046e-008 1.4 -0.1
v -5.96046e-008 1.7 -0.1
v -5.96046e-008 1.8 -0.1
v -5.96046e-008 0 0
v -5.96046e-008 0.1 0
v -5.96046e-008 0.4 0
v -5.96046e-008 0.8 0
v -5.96046e-008 0.9 0
v -5.96046e-008 1 0
v -5.96046e-008 1.3 0
v -5.96046e-008 1.4 0
v -5.96046e-008 1.7 0
v -5.96046e-008 1.8 0
v -5.96046e-008 0.4 0.1
v -5.96046e-008 0.8 0.1
v -5.96046e-008 0.9 0.1
v 0.3 1 -0.1
v 0.3 1.1 -0.1
v 0.3 1.2 -0.1
v 0.3 1.3 -0.1
v 0.3 1 0
v 0.3 1.1 0
v 0.3 1.2 0
v 0.3 1.3 0
v 0.4 0.9 -0.1
v 0.4 1 -0.1
v 0.4 1.3 -0.1
v 0.4 1.4 -0.1
v 0.4 0.9 0
v 0.4 1 0
v 0.4 1.3 0
v 0.4 1.4 0
v -0.3 0.9 -0.1
v -0.3 1 -0.1
v -0.3 1.3 -0.1
v -0.3 1.4 -0.1
v -0.3 0.9 0
v -0.3 1 0
v -0.3 1.3 0
v -0.3 1.4 0
v -0.2 1 -0.1
v -0.2 1.1 -0.1
v -0.2 1.2 -0.1
v -0.2 1.3 -0.1
v -0.2 1 0
v -0.2 1.1 0
v -0.2 1.2 0
v -0.2 1.3 0
v 0.1 0.4 -0.2
v 0.1 0.8 -0.2
v 0.1 0.9 -0.2
v 0.1 0 -0.1
v 0.1 0.1 -0.1
v 0.1 0.4 -0.1
v 0.1 0.8 -0.1
v 0.1 0.9 -0.1
v 0.1 1 -0.1
v 0.1 1.3 -0.1
v 0.1 1.4 -0.1
v 0.1 1.7 -0.1
v 0.1 1.8 -0.1
v 0.1 0 0
v 0.1 0.1 0
v 0.1 0.4 0
v 0.1 0.8 0
v 0.1 0.9 0
v 0.1 1 0
v 0.1 1.3 0
v 0.1 1.4 0
v 0.1 1.7 0
v 0.1 1.8 0
v 0.1 0.4 0.1
v 0.1 0.8 0.1
v 0.1 0.9 0.1
v 0.2 0.1 -0.1
v 0.2 0.2 -0.1
v 0.2 0.3 -0.1
v 0.2 0.9 -0.1
v 0.2 1 -0.1
v 0.2 1.1 -0.1
v 0.2 1.2 -0.1
v 0.2 1.3 -0.1
v 0.2 1.4 -0.1
v 0.2 1.5 -0.1
v 0.2 1.6 -0.1
v 0.2 1.7 -0.1
v 0.2 0.1 0
v 0.2 0.2 0
v 0.2 0.3 0
v 0.2 0.9 0
v 0.2 1 0
v 0.2 1.1 0
v 0.2 1.2 0
v 0.2 1.3 0
v 0.2 1.4 0
v 0.2 1.5 0
v 0.2 1.6 0
v 0.2 1.7 0
v 0.3 0.2 -0.1
v 0.3 0.3 -0.1
v 0.3 1.5 -0.1
v 0.3 1.6 -0.1
v 0.3 0.2 0
v 0.3 0.3 0
v 0.3 1.5 0
v 0.3 1.6 0
v 0.5 0.9 -0.1
v 0.5 1 -0.1
v 0.5 1.3 -0.1
v 0.5 1.4 -0.1
v 0.5 0.9 0
v 0.5 1 0
v 0.5 1.3 0
v 0.5 1.4 0
v 0.6 1 -0.1
v 0.6 1.1 -0.1
v 0.6 1.2 -0.1
v 0.6 1.3 -0.1
v 0.6 1 0
v 0.6 1.1 0
v 0.6 1.2 0
v 0.6 1.3 0
v 0.7 1.1 -0.1
v 0.7 1.2 -0.1
v 0.7 1.1 0
v 0.7 1.2 0
v -5.96046e-008 0 -0.1
v -5.96046e-008 0 0
v 0.1 0 -0.1
v 0.1 0 0
v -0.1 0.1 -0.1
v -0.1 0.1 0
v -5.96046e-008 0.1 -0.1
v -5.96046e-008 0.1 0
v 0.1 0.1 -0.1
v 0.1 0.1 0
v 0.2 0.1 -0.1
v 0.2 0.1 0
v -0.2 0.2 -0.1
v -0.2 0.2 0
v -0.1 0.2 -0.1
v -0.1 0.2 0
v 0.2 0.2 -0.1
v 0.2 0.2 0
v 0.3 0.2 -0.1
v 0.3 0.2 0
v -5.96046e-008 0.4 -0.2
v -5.96046e-008 0.4 -0.1
v -5.96046e-008 0.4 0
v -5.96046e-008 0.4 0.1
v 0.1 0.4 -0.2
v 0.1 0.4 -0.1
v 0.1 0.4 0
v 0.1 0.4 0.1
v -0.4 0.9 -0.1
v -0.4 0.9 0
v -0.3 0.9 -0.1
v -0.3 0.9 0
v 0.4 0.9 -0.1
v 0.4 0.9 0
v 0.5 0.9 -0.1
v 0.5 0.9 0
v -0.5 1 -0.1
v -0.5 1 0
v -0.4 1 -0.1
v -0.4 1 0
v -0.3 1 -0.1
v -0.3 1 0
v -0.2 1 -0.1
v -0.2 1 0
v -0.1 1 -0.1
v -0.1 1 0
v -5.96046e-008 1 -0.1
v -5.96046e-008 1 0
v 0.1 1 -0.1
v 0.1 1 0
v 0.2 1 -0.1
v 0.2 1 0
v 0.3 1 -0.1
v 0.3 1 0
v 0.4 1 -0.1
v 0.4 1 0
v 0.5 1 -0.1
v 0.5 1 0
v 0.6 1 -0.1
v 0.6 1 0
v -0.6 1.1 -0.1
v -0.6 1.1 0
v -0.5 1.1 -0.1
v -0.5 1.1 0
v -0.2 1.1 -0.1
v -0.2 1.1 0
v -0.1 1.1 -0.1
v -0.1 1.1 0
v 0.2 1.1 -0.1
v 0.2 1.1 0
v 0.3 1.1 -0.1
v 0.3 1.1 0
v 0.6 1.1 -0.1
v 0.6 1.1 0
v 0.7 1.1 -0.1
v 0.7 1.1 0
v -0.1 1.4 -0.1
v -0.1 1.4 0
v -5.96046e-008 1.4 -0.1
v -5.96046e-008 1.4 0
v 0.1 1.4 -0.1
v 0.1 1.4 0
v 0.2 1.4 -0.1
v 0.2 1.4 0
v -0.2 1.5 -0.1
v -0.2 1.5 0
v -0.1 1.5 -0.1
v -0.1 1.5 0
v 0.2 1.5 -0.1
v 0.2 1.5 0
v 0.3 1.5 -0.1
v 0.3 1.5 0
v -0.2 0.3 -0.1
v -0.2 0.3 0
v -0.1 0.3 -0.1
v -0.1 0.3 0
v 0.2 0.3 -0.1
v 0.2 0.3 0
v 0.3 0.3 -0.1
v 0.3 0.3 0
v -0.1 0.9 -0.1
v -0.1 0.9 0
v -5.96046e-008 0.9 -0.2
v -5.96046e-008 0.9 -0.1
v -5.96046e-008 0.9 0
v -5.96046e-008 0.9 0.1
v 0.1 0.9 -0.2
v 0.1 0.9 -0.1
v 0.1 0.9 0
v 0.1 0.9 0.1
v 0.2 0.9 -0.1
v 0.2 0.9 0
v -0.6 1.2 -0.1
v -0.6 1.2 0
v -0.5 1.2 -0.1
v -0.5 1.2 0
v -0.2 1.2 -0.1
v -0.2 1.2 0
v -0.1 1.2 -0.1
v -0.1 1.2 0
v 0.2 1.2 -0.1
v 0.2 1.2 0
v 0.3 1.2 -0.1
v 0.3 1.2 0
v 0.6 1.2 -0.1
v 0.6 1.2 0
v 0.7 1.2 -0.1
v 0.7 1.2 0
v -0.5 1.3 -0.1
v -0.5 1.3 0
v -0.4 1.3 -0.1
v -0.4 1.3 0
v -0.3 1.3 -0.1
v -0.3 1.3 0
v -0.2 1.3 -0.1
v -0.2 1.3 0
v -0.1 1.3 -0.1
v -0.1 1.3 0
v -5.96046e-008 1.3 -0.1
v -5.96046e-008 1.3 0
v 0.1 1.3 -0.1
v 0.1 1.3 0
v 0.2 1.3 -0.1
v 0.2 1.3 0
v 0.3 1.3 -0.1
v 0.3 1.3 0
v 0.4 1.3 -0.1
v 0.4 1.3 0
v 0.5 1.3 -0.1
v 0.5 1.3 0
v 0.6 1.3 -0.1
v 0.6 1.3 0
v -0.4 1.4 -0.1
v -0.4 1.4 0
v -0.3 1.4 -0.1
v -0.3 1.4 0
v 0.4 1.4 -0.1
v 0.4 1.4 0
v 0.5 1.4 -0.1
v 0.5 1.4 0
v -0.2 1.6 -0.1
v -0.2 1.6 0
v -0.1 1.6 -0.1
v -0.1 1.6 0
v 0.2 1.6 -0.1
v 0.2 1.6 0
v 0.3 1.6 -0.1
v 0.3 1.6 0
v -0.1 1.7 -0.1
v -0.1 1.7 0
v -5.96046e-008 1.7 -0.1
v -5.96046e-008 1.7 0
v 0.1 1.7 -0.1
v 0.1 1.7 0
v 0.2 1.7 -0.1
v 0.2 1.7 0
v -5.96046e-008 1.8 -0.1
v -5.96046e-008 1.8 0
v 0.1 1.8 -0.1
v 0.1 1.8 0
v -5.96046e-008 0.4 -0.2
v 0.1 0.4 -0.2
v -5.96046e-008 0.8 -0.2
v 0.1 0.8 -0.2
v -5.96046e-008 0.9 -0.2
v 0.1 0.9 -0.2
v -5.96046e-008 0 -0.1
v 0.1 0 -0.1
v -0.1 0.1 -0.1
v -5.96046e-008 0.1 -0.1
v 0.1 0.1 -0.1
v 0.2 0.1 -0.1
v -0.2 0.2 -0.1
v -0.1 0.2 -0.1
v -5.96046e-008 0.2 -0.1
v 0.1 0.2 -0.1
v 0.2 0.2 -0.1
v 0.3 0.2 -0.1
v -0.2 0.3 -0.1
v -0.1 0.3 -0.1
v -5.96046e-008 0.3 -0.1
v 0.1 0.3 -0.1
v 0.2 0.3 -0.1
v 0.3 0.3 -0.1
v -5.96046e-008 0.4 -0.1
v 0.1 0.4 -0.1
v -5.96046e-008 0.8 -0.1
v 0.1 0.8 -0.1
v -0.4 0.9 -0.1
v -0.3 0.9 -0.1
v -0.1 0.9 -0.1
v -5.96046e-008 0.9 -0.1
v 0.1 0.9 -0.1
v 0.2 0.9 -0.1
v 0.4 0.9 -0.1
v 0.5 0.9 -0.1
v -0.5 1 -0.1
v -0.4 1 -0.1
v -0.3 1 -0.1
v -0.2 1 -0.1
v -0.1 1 -0.1
v -5.96046e-008 1 -0.1
v 0.1 1 -0.1
v 0.2 1 -0.1
v 0.3 1 -0.1
v 0.4 1 -0.1
v 0.5 1 -0.1
v 0.6 1 -0.1
v -0.6 1.1 -0.1
v -0.5 1.1 -0.1
v -0.4 1.1 -0.1
v -0.3 1.1 -0.1
v -0.2 1.1 -0.1
v -0.1 1.1 -0.1
v -5.96046e-008 1.1 -0.1
v 0.1 1.1 -0.1
v 0.2 1.1 -0.1
v 0.3 1.1 -0.1
v 0.4 1.1 -0.1
v 0.5 1.1 -0.1
v 0.6 1.1 -0.1
v 0.7 1.1 -0.1
v -0.6 1.2 -0.1
v -0.5 1.2 -0.1
v -0.4 1.2 -0.1
v -0.3 1.2 -0.1
v -0.2 1.2 -0.1
v -0.1 1.2 -0.1
v -5.96046e-008 1.2 -0.1
v 0.1 1.2 -0.1
v 0.2 1.2 -0.1
v 0.3 1.2 -0.1
v 0.4 1.2 -0.1
v 0.5 1.2 -0.1
v 0.6 1.2 -0.1
v 0.7 1.2 -0.1
v -0.5 1.3 -0.1
v -0.4 1.3 -0.1
v -0.3 1.3 -0.1
v -0.2 1.3 -0.1
v -0.1 1.3 -0.1
v -5.96046e-008 1.3 -0.1
v 0.1 1.3 -0.1
v 0.2 1.3 -0.1
v 0.3 1.3 -0.1
v 0.4 1.3 -0.1
v 0.5 1.3 -0.1
v 0.6 1.3 -0.1
v -0.4 1.4 -0.1
v -0.3 1.4 -0.1
v -0.1 1.4 -0.1
v -5.96046e-008 1.4 -0.1
v 0.1 1.4 -0.1
v 0.2 1.4 -0.1
v 0.4 1.4 -0.1
v 0.5 1.4 -0.1
v -0.2 1.5 -0.1
v -0.1 1.5 -0.1
v -5.96046e-008 1.5 -0.1
v 0.1 1.5 -0.1
v 0.2 1.5 -0.1
v 0.3 1.5 -0.1
v -0.2 1.6 -0.1
v -0.1 1.6 -0.1
v -5.96046e-008 1.6 -0.1
v 0.1 1.6 -0.1
v 0.2 1.6 -0.1
v 0.3 1.6 -0.1
v -0.1 1.7 -0.1
v -5.96046e-008 1.7 -0.1
v 0.1 1.7 -0.1
v 0.2 1.7 -0.1
v -5.96046e-008 1.8 -0.1
v 0.1 1.8 -0.1
v -5.96046e-008 0 0
v 0.1 0 0
v -0.1 0.1 0
v -5.96046e-008 0.1 0
v 0.1 0.1 0
v 0.2 0.1 0
v -0.2 0.2 0
v -0.1 0.2 0
v -5.96046e-008 0.2 0
v 0.1 0.2 0
v 0.2 0.2 0
v 0.3 0.2 0
v -0.2 0.3 0
v -0.1 0.3 0
v -5.96046e-008 0.3 0
v 0.1 0.3 0
v 0.2 0.3 0
v 0.3 0.3 0
v -5.96046e-008 0.4 0
v 0.1 0.4 0
v -5.96046e-008 0.8 0
v 0.1 0.8 0
v -0.4 0.9 0
v -0.3 0.9 0
v -0.1 0.9 0
v -5.96046e-008 0.9 0
v 0.1 0.9 0
v 0.2 0.9 0
v 0.4 0.9 0
v 0.5 0.9 0
v -0.5 1 0
v -0.4 1 0
v -0.3 1 0
v -0.2 1 0
v -0.1 1 0
v -5.96046e-008 1 0
v 0.1 1 0
v 0.2 1 0
v 0.3 1 0
v 0.4 1 0
v 0.5 1 0
v 0.6 1 0
v -0.6 1.1 0
v -0.5 1.1 0
v -0.4 1.1 0
v -0.3 1.1 0
v -0.2 1.1 0
v -0.1 1.1 0
v -5.96046e-008 1.1 0
v 0.1 1.1 0
v 0.2 1.1 0
v 0.3 1.1 0
v 0.4 1.1 0
v 0.5 1.1 0
v 0.6 1.1 0
v 0.7 1.1 0
v -0.6 1.2 0
v -0.5 1.2 0
v -0.4 1.2 0
v -0.3 1.2 0
v -0.2 1.2 0
v -0.1 1.2 0
v -5.96046e-008 1.2 0
v 0.1 1.2 0
v 0.2 1.2 0
v 0.3 1.2 0
v 0.4 1.2 0
v 0.5 1.2 0
v 0.6 1.2 0
v 0.7 1.2 0
v -0.5 1.3 0
v -0.4 1.3 0
v -0.3 1.3 0
v -0.2 1.3 0
v -0.1 1.3 0
v -5.96046e-008 1.3 0
v 0.1 1.3 0
v 0.2 1.3 0
v 0.3 1.3 0
v 0.4 1.3 0
v 0.5 1.3 0
v 0.6 1.3 0
v -0.4 1.4 0
v -0.3 1.4 0
v -0.1 1.4 0
v -5.96046e-008 1.4 0
v 0.1 1.4 0
v 0.2 1.4 0
v 0.4 1.4 0
v 0.5 1.4 0
v -0.2 1.5 0
v -0.1 1.5 0
v -5.96046e-008 1.5 0
v 0.1 1.5 0
v 0.2 1.5 0
v 0.3 1.5 0
v -0.2 1.6 0
v -0.1 1.6 0
v -5.96046e-008 1.6 0
v 0.1 1.6 0
v 0.2 1.6 0
v 0.3 1.6 0
v -0.1 1.7 0
v -5.96046e-008 1.7 0
v 0.1 1.7 0
v 0.2 1.7 0
v -5.96046e-008 1.8 0
v 0.1 1.8 0
v -5.96046e-008 0.4 0.1
v 0.1 0.4 0.1
v -5.96046e-008 0.8 0.1
v 0.1 0.8 0.1
v -5.96046e-008 0.9 0.1
v 0.1 0.9 0.1

# faces
f 3/1/1 2/1/1 1/1/1
f 4/1/1 2/1/1 3/1/1
f 9/2/1 6/2/1 5/2/1
f 10/2/1 6/2/1 9/2/1
f 11/1/1 8/1/1 7/1/1
f 12/1/1 8/1/1 11/1/1
f 17/3/1 14/3/1 13/3/1
f 18/3/1 14/3/1 17/3/1
f 19/1/1 16/1/1 15/1/1
f 20/1/1 16/1/1 19/1/1
f 25/1/1 22/1/1 21/1/1
f 26/1/1 22/1/1 25/1/1
f 27/1/1 24/1/1 23/1/1
f 28/1/1 24/1/1 27/1/1
f 41/2/1 30/2/1 29/2/1
f 42/2/1 30/2/1 41/2/1
f 43/1/1 32/1/1 31/1/1
f 44/1/1 32/1/1 43/1/1
f 45/2/1 34/2/1 33/2/1
f 46/2/1 34/2/1 45/2/1
f 47/1/1 36/1/1 35/1/1
f 48/1/1 36/1/1 47/1/1
f 49/2/1 38/2/1 37/2/1
f 50/2/1 38/2/1 49/2/1
f 51/1/1 40/1/1 39/1/1
f 52/1/1 40/1/1 51/1/1
f 58/2/1 54/2/1 53/2/1
f 59/1/1 55/1/1 54/1/1
f 59/2/1 54/2/1 58/2/1
f 60/1/1 55/1/1 59/1/1
f 66/3/1 57/3/1 56/3/1
f 67/3/1 57/3/1 66/3/1
f 70/2/1 61/2/1 60/2/1
f 71/2/1 61/2/1 70/2/1
f 72/2/1 63/2/1 62/2/1
f 73/2/1 63/2/1 72/2/1
f 74/1/1 65/1/1 64/1/1
f 75/1/1 65/1/1 74/1/1
f 76/2/1 69/2/1 68/2/1
f 77/1/1 70/1/1 69/1/1
f 77/2/1 69/2/1 76/2/1
f 78/1/1 70/1/1 77/1/1
f 83/2/1 80/2/1 79/2/1
f 84/2/1 80/2/1 83/2/1
f 85/1/1 82/1/1 81/1/1
f 86/1/1 82/1/1 85/1/1
f 91/3/1 88/3/1 87/3/1
f 92/3/1 88/3/1 91/3/1
f 93/1/1 90/1/1 89/1/1
f 94/1/1 90/1/1 93/1/1
f 95/3/2 96/3/2 99/3/2
f 99/3/2 96/3/2 100/3/2
f 97/1/2 98/1/2 101/1/2
f 101/1/2 98/1/2 102/1/2
f 103/3/2 104/3/2 107/3/2
f 107/3/2 104/3/2 108/3/2
f 105/2/2 106/2/2 109/2/2
f 109/2/2 106/2/2 110/2/2
f 111/2/2 112/2/2 116/2/2
f 112/1/2 113/1/2 117/1/2
f 116/2/2 112/2/2 117/2/2
f 117/1/2 113/1/2 118/1/2
f 114/3/2 115/3/2 124/3/2
f 124/3/2 115/3/2 125/3/2
f 118/2/2 119/2/2 128/2/2
f 128/2/2 119/2/2 129/2/2
f 120/2/2 121/2/2 130/2/2
f 130/2/2 121/2/2 131/2/2
f 122/1/2 123/1/2 132/1/2
f 132/1/2 123/1/2 133/1/2
f 126/2/2 127/2/2 134/2/2
f 127/1/2 128/1/2 135/1/2
f 134/2/2 127/2/2 135/2/2
f 135/1/2 128/1/2 136/1/2
f 137/3/2 138/3/2 149/3/2
f 149/3/2 138/3/2 150/3/2
f 139/2/2 140/2/2 151/2/2
f 151/2/2 140/2/2 152/2/2
f 141/3/2 142/3/2 153/3/2
f 153/3/2 142/3/2 154/3/2
f 143/2/2 144/2/2 155/2/2
f 155/2/2 144/2/2 156/2/2
f 145/3/2 146/3/2 157/3/2
f 157/3/2 146/3/2 158/3/2
f 147/2/2 148/2/2 159/2/2
f 159/2/2 148/2/2 160/2/2
f 161/3/2 162/3/2 165/3/2
f 165/3/2 162/3/2 166/3/2
f 163/3/2 164/3/2 167/3/2
f 167/3/2 164/3/2 168/3/2
f 169/3/2 170/3/2 173/3/2
f 173/3/2 170/3/2 174/3/2
f 171/1/2 172/1/2 175/1/2
f 175/1/2 172/1/2 176/1/2
f 177/3/2 178/3/2 181/3/2
f 181/3/2 178/3/2 182/3/2
f 179/2/2 180/2/2 183/2/2
f 183/2/2 180/2/2 184/2/2
f 185/3/2 186/3/2 187/3/2
f 187/3/2 186/3/2 188/3/2
f 191/3/3 190/3/3 189/3/3
f 192/3/3 190/3/3 191/3/3
f 195/2/3 194/2/3 193/2/3
f 196/2/3 194/2/3 195/2/3
f 199/3/3 198/3/3 197/3/3
f 200/3/3 198/3/3 199/3/3
f 203/1/3 202/1/3 201/1/3
f 204/1/3 202/1/3 203/1/3
f 207/3/3 206/3/3 205/3/3
f 208/3/3 206/3/3 207/3/3
f 213/2/3 210/2/3 209/2/3
f 214/2/3 210/2/3 213/2/3
f 215/2/3 212/2/3 211/2/3
f 216/2/3 212/2/3 215/2/3
f 219/3/3 218/3/3 217/3/3
f 220/3/3 218/3/3 219/3/3
f 223/3/3 222/3/3 221/3/3
f 224/3/3 222/3/3 223/3/3
f 227/2/3 226/2/3 225/2/3
f 228/2/3 226/2/3 227/2/3
f 231/3/3 230/3/3 229/3/3
f 232/3/3 230/3/3 231/3/3
f 235/2/3 234/2/3 233/2/3
f 236/2/3 234/2/3 235/2/3
f 239/3/3 238/3/3 237/3/3
f 240/3/3 238/3/3 239/3/3
f 243/2/3 242/2/3 241/2/3
f 244/2/3 242/2/3 243/2/3
f 247/3/3 246/3/3 245/3/3
f 248/3/3 246/3/3 247/3/3
f 251/1/3 250/1/3 249/1/3
f 252/1/3 250/1/3 251/1/3
f 255/2/3 254/2/3 253/2/3
f 256/2/3 254/2/3 255/2/3
f 259/2/3 258/2/3 257/2/3
f 260/2/3 258/2/3 259/2/3
f 263/3/3 262/3/3 261/3/3
f 264/3/3 262/3/3 263/3/3
f 267/2/3 266/2/3 265/2/3
f 268/2/3 266/2/3 267/2/3
f 271/3/3 270/3/3 269/3/3
f 272/3/3 270/3/3 271/3/3
f 275/1/3 274/1/3 273/1/3
f 276/1/3 274/1/3 275/1/3
f 279/3/3 278/3/3 277/3/3
f 280/3/3 278/3/3 279/3/3
f 281/1/4 282/1/4 283/1/4
f 283/1/4 282/1/4 284/1/4
f 285/3/4 286/3/4 287/3/4
f 287/3/4 286/3/4 288/3/4
f 289/1/4 290/1/4 292/1/4
f 292/1/4 290/1/4 293/1/4
f 291/1/4 292/1/4 295/1/4
f 295/1/4 292/1/4 296/1/4
f 293/1/4 294/1/4 297/1/4
f 297/1/4 294/1/4 298/1/4
f 296/2/4 297/2/4 299/2/4
f 299/2/4 297/2/4 300/2/4
f 301/1/4 302/1/4 303/1/4
f 303/1/4 302/1/4 304/1/4
f 305/2/4 306/2/4 307/2/4
f 307/2/4 306/2/4 308/2/4
f 309/2/4 310/2/4 311/2/4
f 311/2/4 310/2/4 312/2/4
f 313/3/4 314/3/4 315/3/4
f 315/3/4 314/3/4 316/3/4
f 317/1/4 318/1/4 319/1/4
f 319/1/4 318/1/4 320/1/4
f 321/2/4 322/2/4 323/2/4
f 323/2/4 322/2/4 324/2/4
f 325/1/4 326/1/4 327/1/4
f 327/1/4 326/1/4 328/1/4
f 329/2/4 330/2/4 331/2/4
f 331/2/4 330/2/4 332/2/4
f 333/1/4 334/1/4 335/1/4
f 335/1/4 334/1/4 336/1/4
f 337/2/4 338/2/4 339/2/4
f 339/2/4 338/2/4 340/2/4
f 341/1/4 342/1/4 343/1/4
f 343/1/4 342/1/4 344/1/4
f 345/1/4 346/1/4 347/1/4
f 347/1/4 346/1/4 348/1/4
f 349/1/4 350/1/4 351/1/4
f 351/1/4 350/1/4 352/1/4
f 353/3/4 354/3/4 355/3/4
f 355/3/4 354/3/4 356/3/4
f 357/1/4 358/1/4 359/1/4
f 359/1/4 358/1/4 360/1/4
f 361/2/4 362/2/4 363/2/4
f 363/2/4 362/2/4 364/2/4
f 365/1/4 366/1/4 367/1/4
f 367/1/4 366/1/4 368/1/4
f 371/2/5 370/2/5 369/2/5
f 372/2/5 370/2/5 371/2/5
f 373/1/5 372/1/5 371/1/5
f 374/1/5 372/1/5 373/1/5
f 378/3/5 376/3/5 375/3/5
f 379/3/5 376/3/5 378/3/5
f 382/2/5 378/2/5 377/2/5
f 383/3/5 380/3/5 379/3/5
f 383/3/5 379/3/5 378/3/5
f 383/2/5 378/2/5 382/2/5
f 384/3/5 380/3/5 383/3/5
f 385/3/5 380/3/5 384/3/5
f 387/1/5 382/1/5 381/1/5
f 387/1/5 383/1/5 382/1/5
f 388/1/5 383/1/5 387/1/5
f 389/2/5 384/2/5 383/2/5
f 389/1/5 383/1/5 388/1/5
f 390/3/5 386/3/5 385/3/5
f 390/2/5 384/2/5 389/2/5
f 390/3/5 385/3/5 384/3/5
f 391/3/5 386/3/5 390/3/5
f 392/3/5 386/3/5 391/3/5
f 393/1/5 389/1/5 388/1/5
f 393/1/5 390/1/5 389/1/5
f 394/2/5 391/2/5 390/2/5
f 394/1/5 390/1/5 393/1/5
f 395/1/5 393/1/5 388/1/5
f 396/2/5 391/2/5 394/2/5
f 399/1/5 395/1/5 388/1/5
f 400/1/5 395/1/5 399/1/5
f 401/2/5 391/2/5 396/2/5
f 402/2/5 391/2/5 401/2/5
f 406/3/5 398/3/5 397/3/5
f 407/3/5 398/3/5 406/3/5
f 410/2/5 401/2/5 400/2/5
f 411/2/5 401/2/5 410/2/5
f 414/3/5 404/3/5 403/3/5
f 415/3/5 404/3/5 414/3/5
f 418/2/5 406/2/5 405/2/5
f 419/3/5 408/3/5 407/3/5
f 419/3/5 407/3/5 406/3/5
f 419/2/5 406/2/5 418/2/5
f 420/3/5 408/3/5 419/3/5
f 421/3/5 408/3/5 420/3/5
f 422/2/5 410/2/5 409/2/5
f 423/3/5 412/3/5 411/3/5
f 423/3/5 411/3/5 410/3/5
f 423/2/5 410/2/5 422/2/5
f 424/3/5 412/3/5 423/3/5
f 425/3/5 412/3/5 424/3/5
f 426/2/5 414/2/5 413/2/5
f 427/3/5 416/3/5 415/3/5
f 427/3/5 415/3/5 414/3/5
f 427/2/5 414/2/5 426/2/5
f 428/3/5 416/3/5 427/3/5
f 429/3/5 416/3/5 428/3/5
f 431/1/5 418/1/5 417/1/5
f 431/1/5 419/1/5 418/1/5
f 432/1/5 419/1/5 431/1/5
f 433/2/5 420/2/5 419/2/5
f 433/1/5 419/1/5 432/1/5
f 434/3/5 421/3/5 420/3/5
f 434/2/5 420/2/5 433/2/5
f 435/2/5 422/2/5 421/2/5
f 435/3/5 421/3/5 434/3/5
f 436/1/5 423/1/5 422/1/5
f 436/2/5 422/2/5 435/2/5
f 437/2/5 424/2/5 423/2/5
f 437/1/5 423/1/5 436/1/5
f 438/3/5 425/3/5 424/3/5
f 438/2/5 424/2/5 437/2/5
f 439/2/5 426/2/5 425/2/5
f 439/3/5 425/3/5 438/3/5
f 440/1/5 427/1/5 426/1/5
f 440/2/5 426/2/5 439/2/5
f 441/2/5 428/2/5 427/2/5
f 441/1/5 427/1/5 440/1/5
f 442/3/5 430/3/5 429/3/5
f 442/2/5 428/2/5 441/2/5
f 442/3/5 429/3/5 428/3/5
f 443/3/5 430/3/5 442/3/5
f 444/3/5 430/3/5 443/3/5
f 445/1/5 434/1/5 433/1/5
f 445/1/5 433/1/5 432/1/5
f 446/1/5 434/1/5 445/1/5
f 447/2/5 435/2/5 434/2/5
f 447/1/5 434/1/5 446/1/5
f 448/2/5 435/2/5 447/2/5
f 449/1/5 438/1/5 437/1/5
f 449/1/5 437/1/5 436/1/5
f 450/1/5 438/1/5 449/1/5
f 451/2/5 439/2/5 438/2/5
f 451/1/5 438/1/5 450/1/5
f 452/2/5 439/2/5 451/2/5
f 453/1/5 441/1/5 440/1/5
f 453/1/5 442/1/5 441/1/5
f 454/1/5 442/1/5 453/1/5
f 455/2/5 443/2/5 442/2/5
f 455/1/5 442/1/5 454/1/5
f 456/2/5 443/2/5 455/2/5
f 457/1/5 447/1/5 446/1/5
f 458/1/5 447/1/5 457/1/5
f 460/2/5 451/2/5 450/2/5
f 461/2/5 451/2/5 460/2/5
f 463/1/5 455/1/5 454/1/5
f 464/1/5 455/1/5 463/1/5
f 466/2/5 460/2/5 459/2/5
f 467/3/5 462/3/5 461/3/5
f 467/3/5 461/3/5 460/3/5
f 467/2/5 460/2/5 466/2/5
f 468/3/5 462/3/5 467/3/5
f 469/3/5 462/3/5 468/3/5
f 471/1/5 466/1/5 465/1/5
f 471/1/5 467/1/5 466/1/5
f 472/1/5 467/1/5 471/1/5
f 473/2/5 468/2/5 467/2/5
f 473/1/5 467/1/5 472/1/5
f 474/3/5 470/3/5 469/3/5
f 474/2/5 468/2/5 473/2/5
f 474/3/5 469/3/5 468/3/5
f 475/3/5 470/3/5 474/3/5
f 476/3/5 470/3/5 475/3/5
f 477/1/5 473/1/5 472/1/5
f 477/1/5 474/1/5 473/1/5
f 478/1/5 474/1/5 477/1/5
f 479/2/5 475/2/5 474/2/5
f 479/1/5 474/1/5 478/1/5
f 480/2/5 475/2/5 479/2/5
f 481/1/5 479/1/5 478/1/5
f 482/1/5 479/1/5 481/1/5
f 483/3/6 484/3/6 486/3/6
f 486/3/6 484/3/6 487/3/6
f 485/2/6 486/2/6 490/2/6
f 487/3/6 488/3/6 491/3/6
f 486/3/6 487/3/6 491/3/6
f 490/2/6 486/2/6 491/2/6
f 491/3/6 488/3/6 492/3/6
f 492/3/6 488/3/6 493/3/6
f 489/1/6 490/1/6 495/1/6
f 490/1/6 491/1/6 495/1/6
f 495/1/6 491/1/6 496/1/6
f 491/2/6 492/2/6 497/2/6
f 496/1/6 491/1/6 497/1/6
f 493/3/6 494/3/6 498/3/6
f 497/2/6 492/2/6 498/2/6
f 492/3/6 493/3/6 498/3/6
f 498/3/6 494/3/6 499/3/6
f 499/3/6 494/3/6 500/3/6
f 496/1/6 497/1/6 501/1/6
f 497/1/6 498/1/6 501/1/6
f 498/2/6 499/2/6 502/2/6
f 501/1/6 498/1/6 502/1/6
f 496/1/6 501/1/6 503/1/6
f 502/2/6 499/2/6 504/2/6
f 496/1/6 503/1/6 507/1/6
f 507/1/6 503/1/6 508/1/6
f 504/2/6 499/2/6 509/2/6
f 509/2/6 499/2/6 510/2/6
f 505/3/6 506/3/6 514/3/6
f 514/3/6 506/3/6 515/3/6
f 508/2/6 509/2/6 518/2/6
f 518/2/6 509/2/6 519/2/6
f 511/3/6 512/3/6 522/3/6
f 522/3/6 512/3/6 523/3/6
f 513/2/6 514/2/6 526/2/6
f 515/3/6 516/3/6 527/3/6
f 514/3/6 515/3/6 527/3/6
f 526/2/6 514/2/6 527/2/6
f 527/3/6 516/3/6 528/3/6
f 528/3/6 516/3/6 529/3/6
f 517/2/6 518/2/6 530/2/6
f 519/3/6 520/3/6 531/3/6
f 518/3/6 519/3/6 531/3/6
f 530/2/6 518/2/6 531/2/6
f 531/3/6 520/3/6 532/3/6
f 532/3/6 520/3/6 533/3/6
f 521/2/6 522/2/6 534/2/6
f 523/3/6 524/3/6 535/3/6
f 522/3/6 523/3/6 535/3/6
f 534/2/6 522/2/6 535/2/6
f 535/3/6 524/3/6 536/3/6
f 536/3/6 524/3/6 537/3/6
f 525/1/6 526/1/6 539/1/6
f 526/1/6 527/1/6 539/1/6
f 539/1/6 527/1/6 540/1/6
f 527/2/6 528/2/6 541/2/6
f 540/1/6 527/1/6 541/1/6
f 528/3/6 529/3/6 542/3/6
f 541/2/6 528/2/6 542/2/6
f 529/2/6 530/2/6 543/2/6
f 542/3/6 529/3/6 543/3/6
f 530/1/6 531/1/6 544/1/6
f 543/2/6 530/2/6 544/2/6
f 531/2/6 532/2/6 545/2/6
f 544/1/6 531/1/6 545/1/6
f 532/3/6 533/3/6 546/3/6
f 545/2/6 532/2/6 546/2/6
f 533/2/6 534/2/6 547/2/6
f 546/3/6 533/3/6 547/3/6
f 534/1/6 535/1/6 548/1/6
f 547/2/6 534/2/6 548/2/6
f 535/2/6 536/2/6 549/2/6
f 548/1/6 535/1/6 549/1/6
f 537/3/6 538/3/6 550/3/6
f 549/2/6 536/2/6 550/2/6
f 536/3/6 537/3/6 550/3/6
f 550/3/6 538/3/6 551/3/6
f 551/3/6 538/3/6 552/3/6
f 541/1/6 542/1/6 553/1/6
f 540/1/6 541/1/6 553/1/6
f 553/1/6 542/1/6 554/1/6
f 542/2/6 543/2/6 555/2/6
f 554/1/6 542/1/6 555/1/6
f 555/2/6 543/2/6 556/2/6
f 545/1/6 546/1/6 557/1/6
f 544/1/6 545/1/6 557/1/6
f 557/1/6 546/1/6 558/1/6
f 546/2/6 547/2/6 559/2/6
f 558/1/6 546/1/6 559/1/6
f 559/2/6 547/2/6 560/2/6
f 548/1/6 549/1/6 561/1/6
f 549/1/6 550/1/6 561/1/6
f 561/1/6 550/1/6 562/1/6
f 550/2/6 551/2/6 563/2/6
f 562/1/6 550/1/6 563/1/6
f 563/2/6 551/2/6 564/2/6
f 554/1/6 555/1/6 565/1/6
f 565/1/6 555/1/6 566/1/6
f 558/2/6 559/2/6 568/2/6
f 568/2/6 559/2/6 569/2/6
f 562/1/6 563/1/6 571/1/6
f 571/1/6 563/1/6 572/1/6
f 567/2/6 568/2/6 574/2/6
f 569/3/6 570/3/6 575/3/6
f 568/3/6 569/3/6 575/3/6
f 574/2/6 568/2/6 575/2/6
f 575/3/6 570/3/6 576/3/6
f 576/3/6 570/3/6 577/3/6
f 573/1/6 574/1/6 579/1/6
f 574/1/6 575/1/6 579/1/6
f 579/1/6 575/1/6 580/1/6
f 575/2/6 576/2/6 581/2/6
f 580/1/6 575/1/6 581/1/6
f 577/3/6 578/3/6 582/3/6
f 581/2/6 576/2/6 582/2/6
f 576/3/6 577/3/6 582/3/6
f 582/3/6 578/3/6 583/3/6
f 583/3/6 578/3/6 584/3/6
f 580/1/6 581/1/6 585/1/6
f 581/1/6 582/1/6 585/1/6
f 585/1/6 582/1/6 586/1/6
f 582/2/6 583/2/6 587/2/6
f 586/1/6 582/1/6 587/1/6
f 587/2/6 583/2/6 588/2/6
f 586/1/6 587/1/6 589/1/6
f 589/1/6 587/1/6 590/1/6
f 591/2/6 592/2/6 593/2/6
f 593/2/6 592/2/6 594/2/6
f 593/1/6 594/1/6 595/1/6
f 595/1/6 594/1/6 596/1/6
