# MagicaVoxel @ Ephtracy

# group
o 

# material
mtllib GoldChest-0.mtl
usemtl palette

# normals
vn -1 0 0
vn 1 0 0
vn 0 0 1
vn 0 0 -1
vn 0 -1 0
vn 0 1 0

# texcoords
vt 0.0566406 0.5
vt 0.0605469 0.5
vt 0.166016 0.5
vt 0.224609 0.5
vt 0.369141 0.5
vt 0.494141 0.5
vt 0.533203 0.5
vt 0.654297 0.5
vt 0.677734 0.5
vt 0.724609 0.5
vt 0.892578 0.5
vt 0.923828 0.5
vt 0.935547 0.5

# verts
v -0.5 0.7 0.5
v -0.5 0.7 0.3
v -0.5 0.9 0.5
v -0.5 0.9 0.3
v -0.4 0.7 0.3
v -0.4 0.7 0.2
v -0.4 0.7 -0.1
v -0.4 0.7 -0.2
v -0.4 0.7 -0.3
v -0.4 0.8 0.3
v -0.4 0.8 0.2
v -0.4 0.8 0.1
v -0.4 0.8 0
v -0.4 0.8 -0.1
v -0.4 0.8 -0.2
v -0.4 0.8 -0.3
v -0.4 0.9 0.2
v -0.4 0.9 0.1
v -0.4 0.9 0
v -0.3 0.8 0.3
v -0.3 0.8 0.2
v -0.3 0.8 0
v -0.3 0.8 -0.1
v -0.3 0.9 0.3
v -0.3 0.9 0.2
v -0.3 0.9 0.1
v -0.3 0.9 0
v -0.3 0.9 -0.1
v -0.3 1 0.2
v -0.3 1 0.1
v -0.3 1 0
v -0.2 0.7 0.5
v -0.2 0.7 0.4
v -0.2 0.8 0.5
v -0.2 0.8 0.4
v 0 0.7 0.3
v 0 0.7 0.2
v 0 0.7 0
v 0 0.7 -0.1
v 0 0.7 -0.2
v 0 0.7 -0.3
v 0 0.8 0.3
v 0 0.8 0.2
v 0 0.8 0
v 0 0.8 -0.1
v 0 0.8 -0.2
v 0 0.8 -0.3
v 0 0.9 -0.1
v 0 0.9 -0.2
v 0.1 0.8 0
v 0.1 0.8 -0.1
v 0.1 0.8 -0.2
v 0.1 0.8 -0.3
v 0.1 0.9 0
v 0.1 0.9 -0.1
v 0.1 0.9 -0.2
v 0.1 0.9 -0.3
v 0.2 0.7 0.4
v 0.2 0.7 0.3
v 0.2 0.7 0.2
v 0.2 0.7 0.1
v 0.2 0.8 0.4
v 0.2 0.8 0.3
v 0.2 0.8 0.2
v 0.2 0.8 0.1
v 0.3 0.7 0.3
v 0.3 0.7 0.2
v 0.3 0.7 0.1
v 0.3 0.7 0
v 0.3 0.8 0.3
v 0.3 0.8 0.2
v 0.3 0.8 0.1
v 0.3 0.8 0
v 0.3 0.9 0.3
v 0.3 0.9 0.2
v 0.3 0.9 0.1
v 0.4 0.7 0.4
v 0.4 0.7 0.3
v 0.4 0.8 0.4
v 0.4 0.8 0.3
v -0.3 0.7 0.5
v -0.3 0.7 0.3
v -0.3 0.7 -0.2
v -0.3 0.7 -0.3
v -0.3 0.8 0.5
v -0.3 0.8 0.4
v -0.3 0.8 0.3
v -0.3 0.8 -0.2
v -0.3 0.8 -0.3
v -0.3 0.9 0.5
v -0.3 0.9 0.4
v -0.3 0.9 0.3
v -0.2 0.8 0.3
v -0.2 0.8 0.2
v -0.2 0.8 0
v -0.2 0.8 -0.1
v -0.2 0.9 0.3
v -0.2 0.9 0.2
v -0.2 0.9 0.1
v -0.2 0.9 0
v -0.2 0.9 -0.1
v -0.2 1 0.2
v -0.2 1 0.1
v -0.2 1 0
v -0.1 0.7 0.5
v -0.1 0.7 0.4
v -0.1 0.7 0.3
v -0.1 0.7 0.2
v -0.1 0.7 0.1
v -0.1 0.7 -0.1
v -0.1 0.8 0.5
v -0.1 0.8 0.4
v -0.1 0.8 0.3
v -0.1 0.8 0.2
v -0.1 0.8 0.1
v -0.1 0.8 0
v -0.1 0.8 -0.1
v -0.1 0.9 0.2
v -0.1 0.9 0.1
v -0.1 0.9 0
v 0.1 0.7 0.3
v 0.1 0.7 0.2
v 0.1 0.8 0.3
v 0.1 0.8 0.2
v 0.2 0.8 0
v 0.2 0.8 -0.1
v 0.2 0.8 -0.2
v 0.2 0.8 -0.3
v 0.2 0.9 0
v 0.2 0.9 -0.1
v 0.2 0.9 -0.2
v 0.2 0.9 -0.3
v 0.3 0.7 0.4
v 0.3 0.7 0.3
v 0.3 0.7 0
v 0.3 0.7 -0.1
v 0.3 0.7 -0.2
v 0.3 0.7 -0.3
v 0.3 0.8 0.4
v 0.3 0.8 0.3
v 0.3 0.8 0
v 0.3 0.8 -0.1
v 0.3 0.8 -0.2
v 0.3 0.8 -0.3
v 0.3 0.9 -0.1
v 0.3 0.9 -0.2
v 0.4 0.7 0.1
v 0.4 0.7 0
v 0.4 0.7 -0.1
v 0.4 0.7 -0.2
v 0.4 0.8 0.1
v 0.4 0.8 0
v 0.4 0.8 -0.1
v 0.4 0.8 -0.2
v 0.5 0.7 0.4
v 0.5 0.7 0.2
v 0.5 0.7 0.1
v 0.5 0.8 0.4
v 0.5 0.8 0.3
v 0.5 0.8 0.2
v 0.5 0.8 0.1
v 0.5 0.9 0.3
v 0.5 0.9 0.2
v 0.5 0.9 0.1
v -0.5 0.7 0.5
v -0.5 0.9 0.5
v -0.4 0.8 0.5
v -0.4 0.9 0.5
v -0.3 0.7 0.5
v -0.3 0.8 0.5
v -0.3 0.9 0.5
v -0.2 0.7 0.5
v -0.2 0.8 0.5
v -0.1 0.7 0.5
v -0.1 0.8 0.5
v 0.2 0.7 0.4
v 0.2 0.8 0.4
v 0.3 0.7 0.4
v 0.3 0.8 0.4
v 0.4 0.7 0.4
v 0.4 0.8 0.4
v 0.5 0.7 0.4
v 0.5 0.8 0.4
v -0.3 0.7 0.3
v -0.3 0.8 0.3
v -0.3 0.9 0.3
v -0.2 0.7 0.3
v -0.2 0.8 0.3
v -0.2 0.9 0.3
v -0.1 0.7 0.3
v -0.1 0.8 0.3
v 0 0.7 0.3
v 0 0.8 0.3
v 0.1 0.7 0.3
v 0.1 0.8 0.3
v 0.3 0.7 0.3
v 0.3 0.8 0.3
v 0.3 0.9 0.3
v 0.4 0.7 0.3
v 0.4 0.8 0.3
v 0.4 0.9 0.3
v 0.5 0.8 0.3
v 0.5 0.9 0.3
v -0.4 0.8 0.2
v -0.4 0.9 0.2
v -0.3 0.8 0.2
v -0.3 0.9 0.2
v -0.3 1 0.2
v -0.2 0.8 0.2
v -0.2 0.9 0.2
v -0.2 1 0.2
v -0.1 0.8 0.2
v -0.1 0.9 0.2
v 0.2 0.7 0.2
v 0.2 0.8 0.2
v 0.3 0.7 0.2
v 0.3 0.8 0.2
v 0 0.7 0
v 0 0.8 0
v 0.1 0.7 0
v 0.1 0.8 0
v 0.1 0.9 0
v 0.2 0.7 0
v 0.2 0.8 0
v 0.2 0.9 0
v 0.3 0.7 0
v 0.3 0.8 0
v 0 0.8 -0.1
v 0 0.9 -0.1
v 0.1 0.8 -0.1
v 0.1 0.9 -0.1
v 0.2 0.8 -0.1
v 0.2 0.9 -0.1
v 0.3 0.7 -0.1
v 0.3 0.8 -0.1
v 0.3 0.9 -0.1
v 0.4 0.7 -0.1
v 0.4 0.8 -0.1
v -0.4 0.7 -0.2
v -0.4 0.8 -0.2
v -0.3 0.7 -0.2
v -0.3 0.8 -0.2
v -0.2 0.7 0.4
v -0.2 0.8 0.4
v -0.1 0.7 0.4
v -0.1 0.8 0.4
v -0.5 0.7 0.3
v -0.5 0.9 0.3
v -0.4 0.7 0.3
v -0.4 0.8 0.3
v -0.3 0.8 0.3
v -0.3 0.9 0.3
v 0.2 0.7 0.3
v 0.2 0.8 0.3
v 0.3 0.7 0.3
v 0.3 0.8 0.3
v 0 0.7 0.2
v 0 0.8 0.2
v 0.1 0.7 0.2
v 0.1 0.8 0.2
v 0.2 0.7 0.1
v 0.2 0.8 0.1
v 0.3 0.7 0.1
v 0.3 0.8 0.1
v 0.3 0.9 0.1
v 0.4 0.7 0.1
v 0.4 0.8 0.1
v 0.4 0.9 0.1
v 0.5 0.7 0.1
v 0.5 0.8 0.1
v 0.5 0.9 0.1
v -0.4 0.8 0
v -0.4 0.9 0
v -0.3 0.8 0
v -0.3 0.9 0
v -0.3 1 0
v -0.2 0.8 0
v -0.2 0.9 0
v -0.2 1 0
v -0.1 0.8 0
v -0.1 0.9 0
v 0.3 0.7 0
v 0.3 0.8 0
v 0.4 0.7 0
v 0.4 0.8 0
v -0.4 0.7 -0.1
v -0.4 0.8 -0.1
v -0.3 0.7 -0.1
v -0.3 0.8 -0.1
v -0.3 0.9 -0.1
v -0.2 0.7 -0.1
v -0.2 0.8 -0.1
v -0.2 0.9 -0.1
v -0.1 0.7 -0.1
v -0.1 0.8 -0.1
v 0 0.8 -0.2
v 0 0.9 -0.2
v 0.1 0.8 -0.2
v 0.1 0.9 -0.2
v 0.2 0.8 -0.2
v 0.2 0.9 -0.2
v 0.3 0.7 -0.2
v 0.3 0.8 -0.2
v 0.3 0.9 -0.2
v 0.4 0.7 -0.2
v 0.4 0.8 -0.2
v -0.4 0.7 -0.3
v -0.4 0.8 -0.3
v -0.3 0.7 -0.3
v -0.3 0.8 -0.3
v 0 0.7 -0.3
v 0 0.8 -0.3
v 0.1 0.8 -0.3
v 0.1 0.9 -0.3
v 0.2 0.8 -0.3
v 0.2 0.9 -0.3
v 0.3 0.7 -0.3
v 0.3 0.8 -0.3
v -0.5 0.7 0.5
v -0.3 0.7 0.5
v -0.2 0.7 0.5
v -0.1 0.7 0.5
v -0.2 0.7 0.4
v -0.1 0.7 0.4
v 0.2 0.7 0.4
v 0.3 0.7 0.4
v 0.4 0.7 0.4
v 0.5 0.7 0.4
v -0.5 0.7 0.3
v -0.4 0.7 0.3
v -0.3 0.7 0.3
v -0.2 0.7 0.3
v -0.1 0.7 0.3
v 0 0.7 0.3
v 0.1 0.7 0.3
v 0.2 0.7 0.3
v 0.3 0.7 0.3
v 0.4 0.7 0.3
v -0.4 0.7 0.2
v -0.2 0.7 0.2
v -0.1 0.7 0.2
v 0 0.7 0.2
v 0.1 0.7 0.2
v 0.2 0.7 0.2
v 0.3 0.7 0.2
v 0.4 0.7 0.2
v 0.5 0.7 0.2
v -0.2 0.7 0.1
v -0.1 0.7 0.1
v 0.2 0.7 0.1
v 0.3 0.7 0.1
v 0.4 0.7 0.1
v 0.5 0.7 0.1
v -0.3 0.7 0
v -0.2 0.7 0
v 0 0.7 0
v 0.1 0.7 0
v 0.2 0.7 0
v 0.3 0.7 0
v 0.4 0.7 0
v -0.4 0.7 -0.1
v -0.3 0.7 -0.1
v -0.2 0.7 -0.1
v -0.1 0.7 -0.1
v 0 0.7 -0.1
v 0.1 0.7 -0.1
v 0.2 0.7 -0.1
v 0.3 0.7 -0.1
v 0.4 0.7 -0.1
v -0.4 0.7 -0.2
v -0.3 0.7 -0.2
v 0 0.7 -0.2
v 0.1 0.7 -0.2
v 0.2 0.7 -0.2
v 0.3 0.7 -0.2
v 0.4 0.7 -0.2
v -0.4 0.7 -0.3
v -0.3 0.7 -0.3
v 0 0.7 -0.3
v 0.3 0.7 -0.3
v -0.2 0.8 0.5
v -0.1 0.8 0.5
v -0.2 0.8 0.4
v -0.1 0.8 0.4
v 0.2 0.8 0.4
v 0.3 0.8 0.4
v 0.4 0.8 0.4
v 0.5 0.8 0.4
v -0.4 0.8 0.3
v -0.3 0.8 0.3
v -0.2 0.8 0.3
v -0.1 0.8 0.3
v 0 0.8 0.3
v 0.1 0.8 0.3
v 0.2 0.8 0.3
v 0.3 0.8 0.3
v 0.4 0.8 0.3
v 0.5 0.8 0.3
v -0.4 0.8 0.2
v -0.3 0.8 0.2
v -0.2 0.8 0.2
v -0.1 0.8 0.2
v 0 0.8 0.2
v 0.1 0.8 0.2
v 0.2 0.8 0.2
v 0.3 0.8 0.2
v 0.2 0.8 0.1
v 0.3 0.8 0.1
v 0.4 0.8 0.1
v -0.4 0.8 0
v -0.3 0.8 0
v -0.2 0.8 0
v -0.1 0.8 0
v 0 0.8 0
v 0.1 0.8 0
v 0.2 0.8 0
v 0.3 0.8 0
v 0.4 0.8 0
v -0.4 0.8 -0.1
v -0.3 0.8 -0.1
v -0.2 0.8 -0.1
v -0.1 0.8 -0.1
v 0 0.8 -0.1
v 0.1 0.8 -0.1
v 0.2 0.8 -0.1
v 0.3 0.8 -0.1
v 0.4 0.8 -0.1
v -0.4 0.8 -0.2
v -0.3 0.8 -0.2
v 0 0.8 -0.2
v 0.1 0.8 -0.2
v 0.2 0.8 -0.2
v 0.3 0.8 -0.2
v 0.4 0.8 -0.2
v -0.4 0.8 -0.3
v -0.3 0.8 -0.3
v 0 0.8 -0.3
v 0.1 0.8 -0.3
v 0.2 0.8 -0.3
v 0.3 0.8 -0.3
v -0.5 0.9 0.5
v -0.4 0.9 0.5
v -0.3 0.9 0.5
v -0.4 0.9 0.4
v -0.3 0.9 0.4
v -0.5 0.9 0.3
v -0.3 0.9 0.3
v -0.2 0.9 0.3
v 0.3 0.9 0.3
v 0.4 0.9 0.3
v 0.5 0.9 0.3
v -0.4 0.9 0.2
v -0.3 0.9 0.2
v -0.2 0.9 0.2
v -0.1 0.9 0.2
v 0.3 0.9 0.2
v 0.4 0.9 0.2
v 0.5 0.9 0.2
v -0.4 0.9 0.1
v -0.3 0.9 0.1
v -0.2 0.9 0.1
v -0.1 0.9 0.1
v 0.3 0.9 0.1
v 0.4 0.9 0.1
v 0.5 0.9 0.1
v -0.4 0.9 0
v -0.3 0.9 0
v -0.2 0.9 0
v -0.1 0.9 0
v 0.1 0.9 0
v 0.2 0.9 0
v -0.3 0.9 -0.1
v -0.2 0.9 -0.1
v 0 0.9 -0.1
v 0.1 0.9 -0.1
v 0.2 0.9 -0.1
v 0.3 0.9 -0.1
v 0 0.9 -0.2
v 0.1 0.9 -0.2
v 0.2 0.9 -0.2
v 0.3 0.9 -0.2
v 0.1 0.9 -0.3
v 0.2 0.9 -0.3
v -0.3 1 0.2
v -0.2 1 0.2
v -0.3 1 0.1
v -0.2 1 0.1
v -0.3 1 0
v -0.2 1 0

# faces
f 3/5/1 2/5/1 1/5/1
f 4/5/1 2/5/1 3/5/1
f 10/8/1 6/8/1 5/8/1
f 11/9/1 7/9/1 6/9/1
f 11/8/1 6/8/1 10/8/1
f 12/9/1 7/9/1 11/9/1
f 13/9/1 7/9/1 12/9/1
f 14/9/1 7/9/1 13/9/1
f 15/8/1 9/8/1 8/8/1
f 16/8/1 9/8/1 15/8/1
f 17/8/1 12/8/1 11/8/1
f 18/9/1 13/9/1 12/9/1
f 18/8/1 12/8/1 17/8/1
f 19/9/1 13/9/1 18/9/1
f 24/11/1 21/11/1 20/11/1
f 25/11/1 21/11/1 24/11/1
f 27/9/1 23/9/1 22/9/1
f 28/9/1 23/9/1 27/9/1
f 29/10/1 26/10/1 25/10/1
f 30/11/1 27/11/1 26/11/1
f 30/10/1 26/10/1 29/10/1
f 31/11/1 27/11/1 30/11/1
f 34/8/1 33/8/1 32/8/1
f 35/8/1 33/8/1 34/8/1
f 42/13/1 37/13/1 36/13/1
f 43/13/1 37/13/1 42/13/1
f 44/13/1 39/13/1 38/13/1
f 45/12/1 40/12/1 39/12/1
f 45/13/1 39/13/1 44/13/1
f 46/13/1 41/13/1 40/13/1
f 46/12/1 40/12/1 45/12/1
f 47/13/1 41/13/1 46/13/1
f 48/12/1 46/12/1 45/12/1
f 49/12/1 46/12/1 48/12/1
f 54/6/1 51/6/1 50/6/1
f 55/6/1 51/6/1 54/6/1
f 56/12/1 53/12/1 52/12/1
f 57/12/1 53/12/1 56/12/1
f 62/7/1 59/7/1 58/7/1
f 63/7/1 59/7/1 62/7/1
f 64/4/1 61/4/1 60/4/1
f 65/4/1 61/4/1 64/4/1
f 70/7/1 67/7/1 66/7/1
f 71/7/1 67/7/1 70/7/1
f 72/4/1 69/4/1 68/4/1
f 73/4/1 69/4/1 72/4/1
f 74/4/1 71/4/1 70/4/1
f 75/7/1 72/7/1 71/7/1
f 75/4/1 71/4/1 74/4/1
f 76/7/1 72/7/1 75/7/1
f 79/4/1 78/4/1 77/4/1
f 80/4/1 78/4/1 79/4/1
f 81/5/2 82/5/2 85/5/2
f 85/5/2 82/5/2 86/5/2
f 86/5/2 82/5/2 87/5/2
f 83/8/2 84/8/2 88/8/2
f 88/8/2 84/8/2 89/8/2
f 85/2/2 86/2/2 90/2/2
f 86/5/2 87/5/2 91/5/2
f 90/2/2 86/2/2 91/2/2
f 91/5/2 87/5/2 92/5/2
f 93/11/2 94/11/2 97/11/2
f 97/11/2 94/11/2 98/11/2
f 95/9/2 96/9/2 100/9/2
f 100/9/2 96/9/2 101/9/2
f 98/10/2 99/10/2 102/10/2
f 99/11/2 100/11/2 103/11/2
f 102/10/2 99/10/2 103/10/2
f 103/11/2 100/11/2 104/11/2
f 105/8/2 106/8/2 111/8/2
f 111/8/2 106/8/2 112/8/2
f 107/11/2 108/11/2 113/11/2
f 108/8/2 109/8/2 114/8/2
f 113/11/2 108/11/2 114/11/2
f 109/9/2 110/9/2 115/9/2
f 114/8/2 109/8/2 115/8/2
f 115/9/2 110/9/2 116/9/2
f 116/9/2 110/9/2 117/9/2
f 114/11/2 115/11/2 118/11/2
f 115/8/2 116/8/2 119/8/2
f 118/11/2 115/11/2 119/11/2
f 119/8/2 116/8/2 120/8/2
f 121/13/2 122/13/2 123/13/2
f 123/13/2 122/13/2 124/13/2
f 125/6/2 126/6/2 129/6/2
f 129/6/2 126/6/2 130/6/2
f 127/12/2 128/12/2 131/12/2
f 131/12/2 128/12/2 132/12/2
f 133/7/2 134/7/2 139/7/2
f 139/7/2 134/7/2 140/7/2
f 135/6/2 136/6/2 141/6/2
f 141/6/2 136/6/2 142/6/2
f 137/13/2 138/13/2 143/13/2
f 143/13/2 138/13/2 144/13/2
f 142/6/2 143/6/2 145/6/2
f 145/6/2 143/6/2 146/6/2
f 147/4/2 148/4/2 151/4/2
f 151/4/2 148/4/2 152/4/2
f 149/4/2 150/4/2 153/4/2
f 153/4/2 150/4/2 154/4/2
f 155/4/2 156/4/2 158/4/2
f 158/4/2 156/4/2 159/4/2
f 156/7/2 157/7/2 160/7/2
f 159/4/2 156/4/2 160/4/2
f 160/7/2 157/7/2 161/7/2
f 159/1/2 160/1/2 162/1/2
f 160/4/2 161/4/2 163/4/2
f 162/1/2 160/1/2 163/1/2
f 163/4/2 161/4/2 164/4/2
f 167/5/3 166/5/3 165/5/3
f 168/5/3 166/5/3 167/5/3
f 169/5/3 167/5/3 165/5/3
f 170/2/3 168/2/3 167/2/3
f 170/5/3 167/5/3 169/5/3
f 171/2/3 168/2/3 170/2/3
f 174/8/3 173/8/3 172/8/3
f 175/8/3 173/8/3 174/8/3
f 178/7/3 177/7/3 176/7/3
f 179/7/3 177/7/3 178/7/3
f 182/4/3 181/4/3 180/4/3
f 183/4/3 181/4/3 182/4/3
f 187/8/3 185/8/3 184/8/3
f 188/11/3 186/11/3 185/11/3
f 188/8/3 185/8/3 187/8/3
f 189/11/3 186/11/3 188/11/3
f 190/11/3 188/11/3 187/11/3
f 191/11/3 188/11/3 190/11/3
f 194/13/3 193/13/3 192/13/3
f 195/13/3 193/13/3 194/13/3
f 199/7/3 197/7/3 196/7/3
f 200/4/3 198/4/3 197/4/3
f 200/7/3 197/7/3 199/7/3
f 201/4/3 198/4/3 200/4/3
f 202/1/3 201/1/3 200/1/3
f 203/1/3 201/1/3 202/1/3
f 206/8/3 205/8/3 204/8/3
f 207/8/3 205/8/3 206/8/3
f 210/10/3 208/10/3 207/10/3
f 211/10/3 208/10/3 210/10/3
f 212/11/3 210/11/3 209/11/3
f 213/11/3 210/11/3 212/11/3
f 216/4/3 215/4/3 214/4/3
f 217/4/3 215/4/3 216/4/3
f 220/13/3 219/13/3 218/13/3
f 221/13/3 219/13/3 220/13/3
f 223/12/3 221/12/3 220/12/3
f 224/6/3 222/6/3 221/6/3
f 224/12/3 221/12/3 223/12/3
f 225/6/3 222/6/3 224/6/3
f 226/6/3 224/6/3 223/6/3
f 227/6/3 224/6/3 226/6/3
f 230/12/3 229/12/3 228/12/3
f 231/12/3 229/12/3 230/12/3
f 235/6/3 233/6/3 232/6/3
f 236/6/3 233/6/3 235/6/3
f 237/4/3 235/4/3 234/4/3
f 238/4/3 235/4/3 237/4/3
f 241/8/3 240/8/3 239/8/3
f 242/8/3 240/8/3 241/8/3
f 243/8/4 244/8/4 245/8/4
f 245/8/4 244/8/4 246/8/4
f 247/5/4 248/5/4 249/5/4
f 249/5/4 248/5/4 250/5/4
f 250/5/4 248/5/4 251/5/4
f 251/5/4 248/5/4 252/5/4
f 253/7/4 254/7/4 255/7/4
f 255/7/4 254/7/4 256/7/4
f 257/13/4 258/13/4 259/13/4
f 259/13/4 258/13/4 260/13/4
f 261/4/4 262/4/4 263/4/4
f 263/4/4 262/4/4 264/4/4
f 264/7/4 265/7/4 267/7/4
f 267/7/4 265/7/4 268/7/4
f 266/7/4 267/7/4 269/7/4
f 267/4/4 268/4/4 270/4/4
f 269/7/4 267/7/4 270/7/4
f 270/4/4 268/4/4 271/4/4
f 272/9/4 273/9/4 274/9/4
f 274/9/4 273/9/4 275/9/4
f 275/11/4 276/11/4 278/11/4
f 278/11/4 276/11/4 279/11/4
f 277/8/4 278/8/4 280/8/4
f 280/8/4 278/8/4 281/8/4
f 282/4/4 283/4/4 284/4/4
f 284/4/4 283/4/4 285/4/4
f 286/9/4 287/9/4 288/9/4
f 288/9/4 287/9/4 289/9/4
f 288/8/4 289/8/4 291/8/4
f 289/9/4 290/9/4 292/9/4
f 291/8/4 289/8/4 292/8/4
f 292/9/4 290/9/4 293/9/4
f 291/9/4 292/9/4 294/9/4
f 294/9/4 292/9/4 295/9/4
f 296/12/4 297/12/4 298/12/4
f 298/12/4 297/12/4 299/12/4
f 300/6/4 301/6/4 303/6/4
f 303/6/4 301/6/4 304/6/4
f 302/4/4 303/4/4 305/4/4
f 305/4/4 303/4/4 306/4/4
f 307/8/4 308/8/4 309/8/4
f 309/8/4 308/8/4 310/8/4
f 311/13/4 312/13/4 313/13/4
f 311/13/4 313/13/4 315/13/4
f 313/12/4 314/12/4 315/12/4
f 315/12/4 314/12/4 316/12/4
f 311/13/4 315/13/4 317/13/4
f 317/13/4 315/13/4 318/13/4
f 323/8/5 322/8/5 321/8/5
f 324/8/5 322/8/5 323/8/5
f 329/5/5 320/5/5 319/5/5
f 330/5/5 320/5/5 329/5/5
f 331/5/5 320/5/5 330/5/5
f 336/7/5 326/7/5 325/7/5
f 337/7/5 326/7/5 336/7/5
f 338/4/5 328/4/5 327/4/5
f 339/8/5 331/8/5 330/8/5
f 339/8/5 332/8/5 331/8/5
f 340/11/5 333/11/5 332/11/5
f 340/8/5 332/8/5 339/8/5
f 341/11/5 333/11/5 340/11/5
f 342/13/5 335/13/5 334/13/5
f 343/13/5 335/13/5 342/13/5
f 345/7/5 338/7/5 337/7/5
f 346/4/5 328/4/5 338/4/5
f 346/7/5 338/7/5 345/7/5
f 347/4/5 328/4/5 346/4/5
f 348/8/5 341/8/5 340/8/5
f 348/9/5 340/9/5 339/9/5
f 349/8/5 341/8/5 348/8/5
f 350/4/5 345/4/5 344/4/5
f 350/4/5 346/4/5 345/4/5
f 351/4/5 346/4/5 350/4/5
f 352/7/5 347/7/5 346/7/5
f 352/4/5 346/4/5 351/4/5
f 353/7/5 347/7/5 352/7/5
f 354/9/5 349/9/5 348/9/5
f 354/9/5 348/9/5 339/9/5
f 355/9/5 349/9/5 354/9/5
f 359/4/5 352/4/5 351/4/5
f 360/4/5 352/4/5 359/4/5
f 361/9/5 354/9/5 339/9/5
f 362/8/5 355/8/5 354/8/5
f 362/9/5 354/9/5 361/9/5
f 363/9/5 349/9/5 355/9/5
f 363/8/5 355/8/5 362/8/5
f 364/9/5 349/9/5 363/9/5
f 365/13/5 357/13/5 356/13/5
f 366/12/5 358/12/5 357/12/5
f 366/13/5 357/13/5 365/13/5
f 367/6/5 359/6/5 358/6/5
f 367/12/5 358/12/5 366/12/5
f 368/6/5 359/6/5 367/6/5
f 372/12/5 366/12/5 365/12/5
f 373/13/5 367/13/5 366/13/5
f 373/12/5 366/12/5 372/12/5
f 374/12/5 368/12/5 367/12/5
f 374/13/5 367/13/5 373/13/5
f 375/4/5 369/4/5 368/4/5
f 375/12/5 368/12/5 374/12/5
f 376/4/5 369/4/5 375/4/5
f 377/8/5 371/8/5 370/8/5
f 378/8/5 371/8/5 377/8/5
f 379/13/5 374/13/5 373/13/5
f 379/13/5 373/13/5 372/13/5
f 379/13/5 375/13/5 374/13/5
f 380/13/5 375/13/5 379/13/5
f 381/8/6 382/8/6 383/8/6
f 383/8/6 382/8/6 384/8/6
f 385/7/6 386/7/6 395/7/6
f 395/7/6 386/7/6 396/7/6
f 387/4/6 388/4/6 397/4/6
f 397/4/6 388/4/6 398/4/6
f 389/8/6 390/8/6 399/8/6
f 399/8/6 390/8/6 400/8/6
f 391/11/6 392/11/6 401/11/6
f 401/11/6 392/11/6 402/11/6
f 393/13/6 394/13/6 403/13/6
f 403/13/6 394/13/6 404/13/6
f 405/4/6 406/4/6 407/4/6
f 407/4/6 406/4/6 408/4/6
f 408/4/6 409/4/6 417/4/6
f 417/4/6 409/4/6 418/4/6
f 410/9/6 411/9/6 419/9/6
f 419/9/6 411/9/6 420/9/6
f 412/9/6 413/9/6 421/9/6
f 421/9/6 413/9/6 422/9/6
f 414/13/6 415/13/6 423/13/6
f 423/13/6 415/13/6 424/13/6
f 416/6/6 417/6/6 425/6/6
f 425/6/6 417/6/6 426/6/6
f 426/4/6 427/4/6 433/4/6
f 433/4/6 427/4/6 434/4/6
f 428/8/6 429/8/6 435/8/6
f 435/8/6 429/8/6 436/8/6
f 430/13/6 431/13/6 437/13/6
f 437/13/6 431/13/6 438/13/6
f 432/13/6 433/13/6 439/13/6
f 439/13/6 433/13/6 440/13/6
f 441/5/6 442/5/6 444/5/6
f 442/2/6 443/2/6 444/2/6
f 444/2/6 443/2/6 445/2/6
f 441/5/6 444/5/6 446/5/6
f 444/5/6 445/5/6 446/5/6
f 446/5/6 445/5/6 447/5/6
f 447/11/6 448/11/6 453/11/6
f 453/11/6 448/11/6 454/11/6
f 449/4/6 450/4/6 456/4/6
f 450/1/6 451/1/6 457/1/6
f 456/4/6 450/4/6 457/4/6
f 457/1/6 451/1/6 458/1/6
f 452/8/6 453/8/6 459/8/6
f 459/8/6 453/8/6 460/8/6
f 454/11/6 455/11/6 461/11/6
f 461/11/6 455/11/6 462/11/6
f 456/7/6 457/7/6 463/7/6
f 457/4/6 458/4/6 464/4/6
f 463/7/6 457/7/6 464/7/6
f 464/4/6 458/4/6 465/4/6
f 459/9/6 460/9/6 466/9/6
f 466/9/6 460/9/6 467/9/6
f 461/8/6 462/8/6 468/8/6
f 468/8/6 462/8/6 469/8/6
f 467/9/6 468/9/6 472/9/6
f 472/9/6 468/9/6 473/9/6
f 470/6/6 471/6/6 475/6/6
f 475/6/6 471/6/6 476/6/6
f 474/12/6 475/12/6 478/12/6
f 475/3/6 476/3/6 479/3/6
f 478/12/6 475/12/6 479/12/6
f 476/6/6 477/6/6 480/6/6
f 479/3/6 476/3/6 480/3/6
f 480/6/6 477/6/6 481/6/6
f 479/12/6 480/12/6 482/12/6
f 482/12/6 480/12/6 483/12/6
f 484/10/6 485/10/6 486/10/6
f 486/10/6 485/10/6 487/10/6
f 486/11/6 487/11/6 488/11/6
f 488/11/6 487/11/6 489/11/6
