# MagicaVoxel @ Ephtracy

# group
o GoldCrown

# material
mtllib GoldCrown-0-GoldCrown.mtl
usemtl palette

# normals
vn -1 0 0
vn 1 0 0
vn 0 -1 0
vn 0 1 0
vn 0 0 -1
vn 0 0 1

# texcoords
vt 0.494141 0.5
vt 0.587891 0.5
vt 0.681641 0.5
vt 0.923828 0.5
vt 0.935547 0.5

# verts
v -0.7 0.2 -0.1
v -0.7 0.3 -0.1
v -0.7 0.2 0.1
v -0.7 0.3 0.1
v -0.5 0.2 -0.4
v -0.5 0.3 -0.4
v -0.5 0.2 -0.3
v -0.5 0.3 -0.3
v -0.5 0.2 0.3
v -0.5 0.3 0.3
v -0.5 0.2 0.4
v -0.5 0.3 0.4
v -0.4 0.2 -0.5
v -0.4 0.3 -0.5
v -0.4 0.2 -0.4
v -0.4 0.3 -0.4
v -0.4 0.2 0.4
v -0.4 0.3 0.4
v -0.4 0.2 0.5
v -0.4 0.3 0.5
v -0.1 0.2 -0.7
v -0.1 0.3 -0.7
v -0.1 0.2 -0.6
v -0.1 0.3 -0.6
v -0.1 0.2 0.6
v -0.1 0.3 0.6
v -0.1 0.2 0.7
v -0.1 0.3 0.7
v 0.3 0.2 -0.5
v 0.3 0.3 -0.5
v 0.3 0.2 -0.4
v 0.3 0.3 -0.4
v 0.3 0.2 0.4
v 0.3 0.3 0.4
v 0.3 0.2 0.5
v 0.3 0.3 0.5
v 0.4 0.2 -0.4
v 0.4 0.3 -0.4
v 0.4 0.2 -0.3
v 0.4 0.3 -0.3
v 0.4 0.2 0.3
v 0.4 0.3 0.3
v 0.4 0.2 0.4
v 0.4 0.3 0.4
v 0.6 0.2 -0.1
v 0.6 0.3 -0.1
v 0.6 0.2 0.1
v 0.6 0.3 0.1
v -0.6 0.2 -0.1
v -0.6 0.3 -0.1
v -0.6 0.2 0.1
v -0.6 0.3 0.1
v -0.4 0.2 -0.4
v -0.4 0.3 -0.4
v -0.4 0.2 -0.3
v -0.4 0.3 -0.3
v -0.4 0.2 0.3
v -0.4 0.3 0.3
v -0.4 0.2 0.4
v -0.4 0.3 0.4
v -0.3 0.2 -0.5
v -0.3 0.3 -0.5
v -0.3 0.2 -0.4
v -0.3 0.3 -0.4
v -0.3 0.2 0.4
v -0.3 0.3 0.4
v -0.3 0.2 0.5
v -0.3 0.3 0.5
v 0.1 0.2 -0.7
v 0.1 0.3 -0.7
v 0.1 0.2 -0.6
v 0.1 0.3 -0.6
v 0.1 0.2 0.6
v 0.1 0.3 0.6
v 0.1 0.2 0.7
v 0.1 0.3 0.7
v 0.4 0.2 -0.5
v 0.4 0.3 -0.5
v 0.4 0.2 -0.4
v 0.4 0.3 -0.4
v 0.4 0.2 0.4
v 0.4 0.3 0.4
v 0.4 0.2 0.5
v 0.4 0.3 0.5
v 0.5 0.2 -0.4
v 0.5 0.3 -0.4
v 0.5 0.2 -0.3
v 0.5 0.3 -0.3
v 0.5 0.2 0.3
v 0.5 0.3 0.3
v 0.5 0.2 0.4
v 0.5 0.3 0.4
v 0.7 0.2 -0.1
v 0.7 0.3 -0.1
v 0.7 0.2 0.1
v 0.7 0.3 0.1
v -0.7 0.2 -0.1
v -0.7 0.2 0.1
v -0.6 0.2 -0.1
v -0.6 0.2 0.1
v -0.5 0.2 -0.4
v -0.5 0.2 -0.3
v -0.5 0.2 0.3
v -0.5 0.2 0.4
v -0.4 0.2 -0.5
v -0.4 0.2 -0.4
v -0.4 0.2 -0.3
v -0.4 0.2 0.3
v -0.4 0.2 0.4
v -0.4 0.2 0.5
v -0.3 0.2 -0.5
v -0.3 0.2 -0.4
v -0.3 0.2 0.4
v -0.3 0.2 0.5
v -0.1 0.2 -0.7
v -0.1 0.2 -0.6
v -0.1 0.2 0.6
v -0.1 0.2 0.7
v 0.1 0.2 -0.7
v 0.1 0.2 -0.6
v 0.1 0.2 0.6
v 0.1 0.2 0.7
v 0.3 0.2 -0.5
v 0.3 0.2 -0.4
v 0.3 0.2 0.4
v 0.3 0.2 0.5
v 0.4 0.2 -0.5
v 0.4 0.2 -0.4
v 0.4 0.2 -0.3
v 0.4 0.2 0.3
v 0.4 0.2 0.4
v 0.4 0.2 0.5
v 0.5 0.2 -0.4
v 0.5 0.2 -0.3
v 0.5 0.2 0.3
v 0.5 0.2 0.4
v 0.6 0.2 -0.1
v 0.6 0.2 0.1
v 0.7 0.2 -0.1
v 0.7 0.2 0.1
v -0.7 0.3 -0.1
v -0.7 0.3 0.1
v -0.6 0.3 -0.1
v -0.6 0.3 0.1
v -0.5 0.3 -0.4
v -0.5 0.3 -0.3
v -0.5 0.3 0.3
v -0.5 0.3 0.4
v -0.4 0.3 -0.5
v -0.4 0.3 -0.4
v -0.4 0.3 -0.3
v -0.4 0.3 0.3
v -0.4 0.3 0.4
v -0.4 0.3 0.5
v -0.3 0.3 -0.5
v -0.3 0.3 -0.4
v -0.3 0.3 0.4
v -0.3 0.3 0.5
v -0.1 0.3 -0.7
v -0.1 0.3 -0.6
v -0.1 0.3 0.6
v -0.1 0.3 0.7
v 0.1 0.3 -0.7
v 0.1 0.3 -0.6
v 0.1 0.3 0.6
v 0.1 0.3 0.7
v 0.3 0.3 -0.5
v 0.3 0.3 -0.4
v 0.3 0.3 0.4
v 0.3 0.3 0.5
v 0.4 0.3 -0.5
v 0.4 0.3 -0.4
v 0.4 0.3 -0.3
v 0.4 0.3 0.3
v 0.4 0.3 0.4
v 0.4 0.3 0.5
v 0.5 0.3 -0.4
v 0.5 0.3 -0.3
v 0.5 0.3 0.3
v 0.5 0.3 0.4
v 0.6 0.3 -0.1
v 0.6 0.3 0.1
v 0.7 0.3 -0.1
v 0.7 0.3 0.1
v -0.1 0.2 -0.7
v 0.1 0.2 -0.7
v -0.1 0.3 -0.7
v 0.1 0.3 -0.7
v -0.4 0.2 -0.5
v -0.3 0.2 -0.5
v 0.3 0.2 -0.5
v 0.4 0.2 -0.5
v -0.4 0.3 -0.5
v -0.3 0.3 -0.5
v 0.3 0.3 -0.5
v 0.4 0.3 -0.5
v -0.5 0.2 -0.4
v -0.4 0.2 -0.4
v 0.4 0.2 -0.4
v 0.5 0.2 -0.4
v -0.5 0.3 -0.4
v -0.4 0.3 -0.4
v 0.4 0.3 -0.4
v 0.5 0.3 -0.4
v -0.7 0.2 -0.1
v -0.6 0.2 -0.1
v 0.6 0.2 -0.1
v 0.7 0.2 -0.1
v -0.7 0.3 -0.1
v -0.6 0.3 -0.1
v 0.6 0.3 -0.1
v 0.7 0.3 -0.1
v -0.5 0.2 0.3
v -0.4 0.2 0.3
v 0.4 0.2 0.3
v 0.5 0.2 0.3
v -0.5 0.3 0.3
v -0.4 0.3 0.3
v 0.4 0.3 0.3
v 0.5 0.3 0.3
v -0.4 0.2 0.4
v -0.3 0.2 0.4
v 0.3 0.2 0.4
v 0.4 0.2 0.4
v -0.4 0.3 0.4
v -0.3 0.3 0.4
v 0.3 0.3 0.4
v 0.4 0.3 0.4
v -0.1 0.2 0.6
v 0.1 0.2 0.6
v -0.1 0.3 0.6
v 0.1 0.3 0.6
v -0.1 0.2 -0.6
v 0.1 0.2 -0.6
v -0.1 0.3 -0.6
v 0.1 0.3 -0.6
v -0.4 0.2 -0.4
v -0.3 0.2 -0.4
v 0.3 0.2 -0.4
v 0.4 0.2 -0.4
v -0.4 0.3 -0.4
v -0.3 0.3 -0.4
v 0.3 0.3 -0.4
v 0.4 0.3 -0.4
v -0.5 0.2 -0.3
v -0.4 0.2 -0.3
v 0.4 0.2 -0.3
v 0.5 0.2 -0.3
v -0.5 0.3 -0.3
v -0.4 0.3 -0.3
v 0.4 0.3 -0.3
v 0.5 0.3 -0.3
v -0.7 0.2 0.1
v -0.6 0.2 0.1
v 0.6 0.2 0.1
v 0.7 0.2 0.1
v -0.7 0.3 0.1
v -0.6 0.3 0.1
v 0.6 0.3 0.1
v 0.7 0.3 0.1
v -0.5 0.2 0.4
v -0.4 0.2 0.4
v 0.4 0.2 0.4
v 0.5 0.2 0.4
v -0.5 0.3 0.4
v -0.4 0.3 0.4
v 0.4 0.3 0.4
v 0.5 0.3 0.4
v -0.4 0.2 0.5
v -0.3 0.2 0.5
v 0.3 0.2 0.5
v 0.4 0.2 0.5
v -0.4 0.3 0.5
v -0.3 0.3 0.5
v 0.3 0.3 0.5
v 0.4 0.3 0.5
v -0.1 0.2 0.7
v 0.1 0.2 0.7
v -0.1 0.3 0.7
v 0.1 0.3 0.7

# faces
f 3/4/1 2/4/1 1/4/1
f 4/4/1 2/4/1 3/4/1
f 7/3/1 6/3/1 5/3/1
f 8/3/1 6/3/1 7/3/1
f 11/5/1 10/5/1 9/5/1
f 12/5/1 10/5/1 11/5/1
f 15/3/1 14/3/1 13/3/1
f 16/3/1 14/3/1 15/3/1
f 19/5/1 18/5/1 17/5/1
f 20/5/1 18/5/1 19/5/1
f 23/1/1 22/1/1 21/1/1
f 24/1/1 22/1/1 23/1/1
f 27/4/1 26/4/1 25/4/1
f 28/4/1 26/4/1 27/4/1
f 31/2/1 30/2/1 29/2/1
f 32/2/1 30/2/1 31/2/1
f 35/3/1 34/3/1 33/3/1
f 36/3/1 34/3/1 35/3/1
f 39/2/1 38/2/1 37/2/1
f 40/2/1 38/2/1 39/2/1
f 43/3/1 42/3/1 41/3/1
f 44/3/1 42/3/1 43/3/1
f 47/1/1 46/1/1 45/1/1
f 48/1/1 46/1/1 47/1/1
f 49/4/2 50/4/2 51/4/2
f 51/4/2 50/4/2 52/4/2
f 53/3/2 54/3/2 55/3/2
f 55/3/2 54/3/2 56/3/2
f 57/5/2 58/5/2 59/5/2
f 59/5/2 58/5/2 60/5/2
f 61/3/2 62/3/2 63/3/2
f 63/3/2 62/3/2 64/3/2
f 65/5/2 66/5/2 67/5/2
f 67/5/2 66/5/2 68/5/2
f 69/1/2 70/1/2 71/1/2
f 71/1/2 70/1/2 72/1/2
f 73/4/2 74/4/2 75/4/2
f 75/4/2 74/4/2 76/4/2
f 77/2/2 78/2/2 79/2/2
f 79/2/2 78/2/2 80/2/2
f 81/3/2 82/3/2 83/3/2
f 83/3/2 82/3/2 84/3/2
f 85/2/2 86/2/2 87/2/2
f 87/2/2 86/2/2 88/2/2
f 89/3/2 90/3/2 91/3/2
f 91/3/2 90/3/2 92/3/2
f 93/1/2 94/1/2 95/1/2
f 95/1/2 94/1/2 96/1/2
f 99/4/3 98/4/3 97/4/3
f 100/4/3 98/4/3 99/4/3
f 106/3/3 102/3/3 101/3/3
f 107/3/3 102/3/3 106/3/3
f 108/5/3 104/5/3 103/5/3
f 109/5/3 104/5/3 108/5/3
f 111/3/3 106/3/3 105/3/3
f 112/3/3 106/3/3 111/3/3
f 113/5/3 110/5/3 109/5/3
f 114/5/3 110/5/3 113/5/3
f 119/1/3 116/1/3 115/1/3
f 120/1/3 116/1/3 119/1/3
f 121/4/3 118/4/3 117/4/3
f 122/4/3 118/4/3 121/4/3
f 127/2/3 124/2/3 123/2/3
f 128/2/3 124/2/3 127/2/3
f 131/3/3 126/3/3 125/3/3
f 132/3/3 126/3/3 131/3/3
f 133/2/3 129/2/3 128/2/3
f 134/2/3 129/2/3 133/2/3
f 135/3/3 131/3/3 130/3/3
f 136/3/3 131/3/3 135/3/3
f 139/1/3 138/1/3 137/1/3
f 140/1/3 138/1/3 139/1/3
f 141/4/4 142/4/4 143/4/4
f 143/4/4 142/4/4 144/4/4
f 145/3/4 146/3/4 150/3/4
f 150/3/4 146/3/4 151/3/4
f 147/5/4 148/5/4 152/5/4
f 152/5/4 148/5/4 153/5/4
f 149/3/4 150/3/4 155/3/4
f 155/3/4 150/3/4 156/3/4
f 153/5/4 154/5/4 157/5/4
f 157/5/4 154/5/4 158/5/4
f 159/1/4 160/1/4 163/1/4
f 163/1/4 160/1/4 164/1/4
f 161/4/4 162/4/4 165/4/4
f 165/4/4 162/4/4 166/4/4
f 167/2/4 168/2/4 171/2/4
f 171/2/4 168/2/4 172/2/4
f 169/3/4 170/3/4 175/3/4
f 175/3/4 170/3/4 176/3/4
f 172/2/4 173/2/4 177/2/4
f 177/2/4 173/2/4 178/2/4
f 174/3/4 175/3/4 179/3/4
f 179/3/4 175/3/4 180/3/4
f 181/1/4 182/1/4 183/1/4
f 183/1/4 182/1/4 184/1/4
f 187/1/5 186/1/5 185/1/5
f 188/1/5 186/1/5 187/1/5
f 193/3/5 190/3/5 189/3/5
f 194/3/5 190/3/5 193/3/5
f 195/2/5 192/2/5 191/2/5
f 196/2/5 192/2/5 195/2/5
f 201/3/5 198/3/5 197/3/5
f 202/3/5 198/3/5 201/3/5
f 203/2/5 200/2/5 199/2/5
f 204/2/5 200/2/5 203/2/5
f 209/4/5 206/4/5 205/4/5
f 210/4/5 206/4/5 209/4/5
f 211/1/5 208/1/5 207/1/5
f 212/1/5 208/1/5 211/1/5
f 217/5/5 214/5/5 213/5/5
f 218/5/5 214/5/5 217/5/5
f 219/3/5 216/3/5 215/3/5
f 220/3/5 216/3/5 219/3/5
f 225/5/5 222/5/5 221/5/5
f 226/5/5 222/5/5 225/5/5
f 227/3/5 224/3/5 223/3/5
f 228/3/5 224/3/5 227/3/5
f 231/4/5 230/4/5 229/4/5
f 232/4/5 230/4/5 231/4/5
f 233/1/6 234/1/6 235/1/6
f 235/1/6 234/1/6 236/1/6
f 237/3/6 238/3/6 241/3/6
f 241/3/6 238/3/6 242/3/6
f 239/2/6 240/2/6 243/2/6
f 243/2/6 240/2/6 244/2/6
f 245/3/6 246/3/6 249/3/6
f 249/3/6 246/3/6 250/3/6
f 247/2/6 248/2/6 251/2/6
f 251/2/6 248/2/6 252/2/6
f 253/4/6 254/4/6 257/4/6
f 257/4/6 254/4/6 258/4/6
f 255/1/6 256/1/6 259/1/6
f 259/1/6 256/1/6 260/1/6
f 261/5/6 262/5/6 265/5/6
f 265/5/6 262/5/6 266/5/6
f 263/3/6 264/3/6 267/3/6
f 267/3/6 264/3/6 268/3/6
f 269/5/6 270/5/6 273/5/6
f 273/5/6 270/5/6 274/5/6
f 271/3/6 272/3/6 275/3/6
f 275/3/6 272/3/6 276/3/6
f 277/4/6 278/4/6 279/4/6
f 279/4/6 278/4/6 280/4/6
