# MagicaVoxel @ Ephtracy

# group
o 

# material
mtllib RedBanner-1.mtl
usemtl palette

# normals
vn -1 0 0
vn 1 0 0
vn 0 0 1
vn 0 0 -1
vn 0 -1 0
vn 0 1 0

# texcoords
vt 0.0605469 0.5
vt 0.232422 0.5
vt 0.396484 0.5
vt 0.419922 0.5
vt 0.560547 0.5
vt 0.701172 0.5
vt 0.853516 0.5
vt 0.857422 0.5
vt 0.861328 0.5
vt 0.865234 0.5
vt 0.869141 0.5
vt 0.873047 0.5
vt 0.876953 0.5

# verts
v -1.4 2.8 0.2
v -1.4 2.8 0.1
v -1.4 2.9 0.2
v -1.4 2.9 0.1
v -1.3 2.7 0.2
v -1.3 2.7 0.1
v -1.3 2.8 0.3
v -1.3 2.8 0.2
v -1.3 2.8 0.1
v -1.3 2.8 0
v -1.3 2.9 0.3
v -1.3 2.9 0.2
v -1.3 2.9 0.1
v -1.3 2.9 0
v -1.3 3 0.2
v -1.3 3 0.1
v -0.9 0.4 0.3
v -0.9 0.4 0.2
v -0.9 2.8 0.2
v -0.9 2.8 0.1
v -0.9 2.8 0
v -0.9 2.9 0.3
v -0.9 2.9 0.2
v -0.9 2.9 0.1
v -0.9 2.9 0
v -0.9 3 0.2
v -0.9 3 0.1
v -0.7 0.4 0.2
v -0.7 0.4 0.1
v -0.7 2.7 0.2
v -0.7 2.7 0.1
v -0.7 2.8 0.2
v -0.7 2.8 0.1
v -0.3 0.3 0.3
v -0.3 0.3 0.2
v -0.3 0.4 0.2
v -0.3 0.5 0.2
v -0.3 0.6 0.2
v -0.3 0.8 0.2
v -0.3 0.9 0.2
v -0.3 2.7 0.3
v -0.3 2.7 0.2
v 0.2 0.4 0.2
v 0.2 0.4 0.1
v 0.2 2.7 0.2
v 0.2 2.7 0.1
v 0.5 0.3 0.3
v 0.5 0.3 0.2
v 0.5 0.4 0.2
v 0.5 2.7 0.3
v 0.5 2.7 0.2
v 0.7 2.7 0.3
v 0.7 2.7 0.2
v 0.7 2.8 0.3
v 0.7 2.8 0.2
v 0.8 2.8 0.3
v 0.8 2.8 0.2
v 0.8 2.8 0.1
v 0.8 2.8 0
v 0.8 2.9 0.3
v 0.8 2.9 0.2
v 0.8 2.9 0.1
v 0.8 2.9 0
v 0.8 3 0.2
v 0.8 3 0.1
v 1.3 2.7 0.2
v 1.3 2.7 0.1
v 1.3 2.8 0.3
v 1.3 2.8 0.2
v 1.3 2.8 0.1
v 1.3 2.8 0
v 1.3 2.9 0.3
v 1.3 2.9 0.2
v 1.3 2.9 0.1
v 1.3 2.9 0
v 1.3 3 0.2
v 1.3 3 0.1
v -1.2 2.7 0.2
v -1.2 2.7 0.1
v -1.2 2.8 0.3
v -1.2 2.8 0.2
v -1.2 2.8 0.1
v -1.2 2.8 0
v -1.2 2.9 0.3
v -1.2 2.9 0.2
v -1.2 2.9 0.1
v -1.2 2.9 0
v -1.2 3 0.2
v -1.2 3 0.1
v -0.7 0.4 0.3
v -0.7 0.4 0.2
v -0.7 2.7 0.2
v -0.7 2.8 0.2
v -0.7 2.8 0.1
v -0.7 2.8 0
v -0.7 2.9 0.3
v -0.7 2.9 0.2
v -0.7 2.9 0.1
v -0.7 2.9 0
v -0.7 3 0.2
v -0.7 3 0.1
v -0.5 2.7 0.2
v -0.5 2.7 0.1
v -0.5 2.8 0.2
v -0.5 2.8 0.1
v -0.3 0.4 0.2
v -0.3 0.4 0.1
v -0.3 0.5 0.2
v -0.3 0.5 0.1
v -0.3 0.6 0.2
v -0.3 0.6 0.1
v -0.3 0.8 0.2
v -0.3 0.8 0.1
v -0.3 0.9 0.2
v -0.3 0.9 0.1
v -0.3 2.7 0.2
v -0.3 2.7 0.1
v 0.2 0.3 0.3
v 0.2 0.3 0.2
v 0.2 0.4 0.2
v 0.2 2.7 0.3
v 0.2 2.7 0.2
v 0.5 0.4 0.2
v 0.5 0.4 0.1
v 0.5 2.7 0.2
v 0.5 2.7 0.1
v 1 0.3 0.3
v 1 0.3 0.2
v 1 2.8 0.2
v 1 2.8 0.1
v 1 2.8 0
v 1 2.9 0.3
v 1 2.9 0.2
v 1 2.9 0.1
v 1 2.9 0
v 1 3 0.2
v 1 3 0.1
v 1.4 2.7 0.2
v 1.4 2.7 0.1
v 1.4 2.8 0.3
v 1.4 2.8 0.2
v 1.4 2.8 0.1
v 1.4 2.8 0
v 1.4 2.9 0.3
v 1.4 2.9 0.2
v 1.4 2.9 0.1
v 1.4 2.9 0
v 1.4 3 0.2
v 1.4 3 0.1
v 1.5 2.8 0.2
v 1.5 2.8 0.1
v 1.5 2.9 0.2
v 1.5 2.9 0.1
v -1.3 2.8 0.3
v -1.3 2.9 0.3
v -1.2 2.8 0.3
v -1.2 2.9 0.3
v -0.9 0.4 0.3
v -0.9 2.9 0.3
v -0.8 0.4 0.3
v -0.8 2.9 0.3
v -0.7 0.4 0.3
v -0.7 2.9 0.3
v -0.3 0.3 0.3
v -0.3 2.7 0.3
v -0.2 0.3 0.3
v -0.2 2.7 0.3
v -0.1 0.3 0.3
v -0.1 2.7 0.3
v 0 0.3 0.3
v 0 2.7 0.3
v 0.1 0.3 0.3
v 0.1 2.7 0.3
v 0.2 0.3 0.3
v 0.2 2.7 0.3
v 0.5 0.3 0.3
v 0.5 2.7 0.3
v 0.6 0.3 0.3
v 0.6 2.7 0.3
v 0.7 0.3 0.3
v 0.7 2.7 0.3
v 0.7 2.8 0.3
v 0.8 0.3 0.3
v 0.8 2.7 0.3
v 0.8 2.8 0.3
v 0.8 2.9 0.3
v 0.9 0.3 0.3
v 0.9 2.7 0.3
v 1 0.3 0.3
v 1 2.9 0.3
v 1.3 2.8 0.3
v 1.3 2.9 0.3
v 1.4 2.8 0.3
v 1.4 2.9 0.3
v -1.4 2.8 0.2
v -1.4 2.9 0.2
v -1.3 2.7 0.2
v -1.3 2.8 0.2
v -1.3 2.9 0.2
v -1.3 3 0.2
v -1.2 2.7 0.2
v -1.2 2.8 0.2
v -1.2 2.9 0.2
v -1.2 3 0.2
v -0.9 2.8 0.2
v -0.9 2.9 0.2
v -0.9 3 0.2
v -0.8 2.9 0.2
v -0.8 3 0.2
v -0.7 0.4 0.2
v -0.7 2.7 0.2
v -0.7 2.8 0.2
v -0.7 2.9 0.2
v -0.7 3 0.2
v -0.6 0.4 0.2
v -0.6 0.5 0.2
v -0.6 0.6 0.2
v -0.6 2.7 0.2
v -0.6 2.8 0.2
v -0.5 0.4 0.2
v -0.5 0.5 0.2
v -0.5 0.6 0.2
v -0.5 0.7 0.2
v -0.5 0.8 0.2
v -0.5 0.9 0.2
v -0.5 1 0.2
v -0.5 1.2 0.2
v -0.5 2.7 0.2
v -0.5 2.8 0.2
v -0.4 0.4 0.2
v -0.4 0.5 0.2
v -0.4 0.6 0.2
v -0.4 0.7 0.2
v -0.4 0.8 0.2
v -0.4 0.9 0.2
v -0.4 1 0.2
v -0.4 1.2 0.2
v -0.4 2.7 0.2
v -0.3 0.4 0.2
v -0.3 0.5 0.2
v -0.3 0.6 0.2
v -0.3 0.8 0.2
v -0.3 0.9 0.2
v -0.3 2.7 0.2
v 0.2 0.4 0.2
v 0.2 2.7 0.2
v 0.3 0.4 0.2
v 0.3 2.7 0.2
v 0.4 0.4 0.2
v 0.4 2.7 0.2
v 0.5 0.4 0.2
v 0.5 2.7 0.2
v 0.7 2.8 0.2
v 0.8 2.8 0.2
v 0.8 2.9 0.2
v 0.8 3 0.2
v 1 2.8 0.2
v 1 2.9 0.2
v 1 3 0.2
v 1.3 2.7 0.2
v 1.3 2.8 0.2
v 1.3 2.9 0.2
v 1.3 3 0.2
v 1.4 2.7 0.2
v 1.4 2.8 0.2
v 1.4 2.9 0.2
v 1.4 3 0.2
v 1.5 2.8 0.2
v 1.5 2.9 0.2
v -0.9 0.4 0.2
v -0.9 2.8 0.2
v -0.8 0.4 0.2
v -0.8 2.8 0.2
v -0.7 0.4 0.2
v -0.7 2.7 0.2
v -0.7 2.8 0.2
v -0.3 0.3 0.2
v -0.3 0.4 0.2
v -0.3 0.5 0.2
v -0.3 0.6 0.2
v -0.3 0.8 0.2
v -0.3 0.9 0.2
v -0.3 2.7 0.2
v -0.2 0.3 0.2
v -0.2 2.7 0.2
v -0.1 0.3 0.2
v -0.1 2.7 0.2
v 0 0.3 0.2
v 0 2.7 0.2
v 0.1 0.3 0.2
v 0.1 2.7 0.2
v 0.2 0.3 0.2
v 0.2 0.4 0.2
v 0.2 2.7 0.2
v 0.5 0.3 0.2
v 0.5 0.4 0.2
v 0.5 2.7 0.2
v 0.6 0.3 0.2
v 0.6 2.7 0.2
v 0.7 0.3 0.2
v 0.7 2.7 0.2
v 0.7 2.8 0.2
v 0.8 0.3 0.2
v 0.8 2.7 0.2
v 0.8 2.8 0.2
v 0.9 0.3 0.2
v 0.9 2.7 0.2
v 1 0.3 0.2
v 1 2.8 0.2
v -1.4 2.8 0.1
v -1.4 2.9 0.1
v -1.3 2.7 0.1
v -1.3 2.8 0.1
v -1.3 2.9 0.1
v -1.3 3 0.1
v -1.2 2.7 0.1
v -1.2 2.8 0.1
v -1.2 2.9 0.1
v -1.2 3 0.1
v -0.9 2.8 0.1
v -0.9 2.9 0.1
v -0.9 3 0.1
v -0.8 2.9 0.1
v -0.8 3 0.1
v -0.7 0.4 0.1
v -0.7 2.7 0.1
v -0.7 2.8 0.1
v -0.7 2.9 0.1
v -0.7 3 0.1
v -0.6 0.4 0.1
v -0.6 0.5 0.1
v -0.6 0.6 0.1
v -0.6 2.7 0.1
v -0.6 2.8 0.1
v -0.5 0.4 0.1
v -0.5 0.5 0.1
v -0.5 0.6 0.1
v -0.5 0.7 0.1
v -0.5 0.8 0.1
v -0.5 0.9 0.1
v -0.5 1 0.1
v -0.5 1.2 0.1
v -0.5 2.7 0.1
v -0.5 2.8 0.1
v -0.4 0.4 0.1
v -0.4 0.5 0.1
v -0.4 0.6 0.1
v -0.4 0.7 0.1
v -0.4 0.8 0.1
v -0.4 0.9 0.1
v -0.4 1 0.1
v -0.4 1.2 0.1
v -0.4 2.7 0.1
v -0.3 0.4 0.1
v -0.3 0.5 0.1
v -0.3 0.6 0.1
v -0.3 0.8 0.1
v -0.3 0.9 0.1
v -0.3 2.7 0.1
v 0.2 0.4 0.1
v 0.2 2.7 0.1
v 0.3 0.4 0.1
v 0.3 2.7 0.1
v 0.4 0.4 0.1
v 0.4 2.7 0.1
v 0.5 0.4 0.1
v 0.5 2.7 0.1
v 0.8 2.8 0.1
v 0.8 2.9 0.1
v 0.8 3 0.1
v 1 2.8 0.1
v 1 2.9 0.1
v 1 3 0.1
v 1.3 2.7 0.1
v 1.3 2.8 0.1
v 1.3 2.9 0.1
v 1.3 3 0.1
v 1.4 2.7 0.1
v 1.4 2.8 0.1
v 1.4 2.9 0.1
v 1.4 3 0.1
v 1.5 2.8 0.1
v 1.5 2.9 0.1
v -1.3 2.8 0
v -1.3 2.9 0
v -1.2 2.8 0
v -1.2 2.9 0
v -0.9 2.8 0
v -0.9 2.9 0
v -0.8 2.8 0
v -0.8 2.9 0
v -0.7 2.8 0
v -0.7 2.9 0
v 0.8 2.8 0
v 0.8 2.9 0
v 1 2.8 0
v 1 2.9 0
v 1.3 2.8 0
v 1.3 2.9 0
v 1.4 2.8 0
v 1.4 2.9 0
v -0.3 0.3 0.3
v -0.2 0.3 0.3
v -0.1 0.3 0.3
v 0 0.3 0.3
v 0.1 0.3 0.3
v 0.2 0.3 0.3
v 0.5 0.3 0.3
v 0.6 0.3 0.3
v 0.7 0.3 0.3
v 0.8 0.3 0.3
v 0.9 0.3 0.3
v 1 0.3 0.3
v -0.3 0.3 0.2
v -0.2 0.3 0.2
v -0.1 0.3 0.2
v 0 0.3 0.2
v 0.1 0.3 0.2
v 0.2 0.3 0.2
v 0.5 0.3 0.2
v 0.6 0.3 0.2
v 0.7 0.3 0.2
v 0.8 0.3 0.2
v 0.9 0.3 0.2
v 1 0.3 0.2
v -0.9 0.4 0.3
v -0.8 0.4 0.3
v -0.7 0.4 0.3
v -0.9 0.4 0.2
v -0.8 0.4 0.2
v -0.7 0.4 0.2
v -0.6 0.4 0.2
v -0.5 0.4 0.2
v -0.4 0.4 0.2
v -0.3 0.4 0.2
v 0.2 0.4 0.2
v 0.3 0.4 0.2
v 0.4 0.4 0.2
v 0.5 0.4 0.2
v -0.7 0.4 0.1
v -0.6 0.4 0.1
v -0.5 0.4 0.1
v -0.4 0.4 0.1
v -0.3 0.4 0.1
v 0.2 0.4 0.1
v 0.3 0.4 0.1
v 0.4 0.4 0.1
v 0.5 0.4 0.1
v -1.3 2.7 0.2
v -1.2 2.7 0.2
v 1.3 2.7 0.2
v 1.4 2.7 0.2
v -1.3 2.7 0.1
v -1.2 2.7 0.1
v 1.3 2.7 0.1
v 1.4 2.7 0.1
v -1.3 2.8 0.3
v -1.2 2.8 0.3
v 1.3 2.8 0.3
v 1.4 2.8 0.3
v -1.4 2.8 0.2
v -1.3 2.8 0.2
v -1.2 2.8 0.2
v -0.9 2.8 0.2
v -0.8 2.8 0.2
v -0.7 2.8 0.2
v -0.5 2.8 0.2
v 0.7 2.8 0.2
v 0.8 2.8 0.2
v 1 2.8 0.2
v 1.3 2.8 0.2
v 1.4 2.8 0.2
v 1.5 2.8 0.2
v -1.4 2.8 0.1
v -1.3 2.8 0.1
v -1.2 2.8 0.1
v -0.9 2.8 0.1
v -0.7 2.8 0.1
v -0.5 2.8 0.1
v 0.8 2.8 0.1
v 1 2.8 0.1
v 1.3 2.8 0.1
v 1.4 2.8 0.1
v 1.5 2.8 0.1
v -1.3 2.8 0
v -1.2 2.8 0
v -0.9 2.8 0
v -0.8 2.8 0
v -0.7 2.8 0
v 0.8 2.8 0
v 1 2.8 0
v 1.3 2.8 0
v 1.4 2.8 0
v -0.3 2.7 0.3
v -0.2 2.7 0.3
v -0.1 2.7 0.3
v 0 2.7 0.3
v 0.1 2.7 0.3
v 0.2 2.7 0.3
v 0.5 2.7 0.3
v 0.6 2.7 0.3
v 0.7 2.7 0.3
v -0.5 2.7 0.2
v -0.4 2.7 0.2
v -0.3 2.7 0.2
v -0.2 2.7 0.2
v -0.1 2.7 0.2
v 0 2.7 0.2
v 0.1 2.7 0.2
v 0.2 2.7 0.2
v 0.3 2.7 0.2
v 0.4 2.7 0.2
v 0.5 2.7 0.2
v 0.6 2.7 0.2
v 0.7 2.7 0.2
v -0.5 2.7 0.1
v -0.4 2.7 0.1
v -0.3 2.7 0.1
v 0.2 2.7 0.1
v 0.3 2.7 0.1
v 0.4 2.7 0.1
v 0.5 2.7 0.1
v 0.7 2.8 0.3
v 0.8 2.8 0.3
v 0.7 2.8 0.2
v 0.8 2.8 0.2
v -1.3 2.9 0.3
v -1.2 2.9 0.3
v -0.9 2.9 0.3
v -0.8 2.9 0.3
v -0.7 2.9 0.3
v 0.8 2.9 0.3
v 1 2.9 0.3
v 1.3 2.9 0.3
v 1.4 2.9 0.3
v -1.4 2.9 0.2
v -1.3 2.9 0.2
v -1.2 2.9 0.2
v -0.9 2.9 0.2
v -0.8 2.9 0.2
v -0.7 2.9 0.2
v 0.8 2.9 0.2
v 1 2.9 0.2
v 1.3 2.9 0.2
v 1.4 2.9 0.2
v 1.5 2.9 0.2
v -1.4 2.9 0.1
v -1.3 2.9 0.1
v -1.2 2.9 0.1
v -0.9 2.9 0.1
v -0.8 2.9 0.1
v -0.7 2.9 0.1
v 0.8 2.9 0.1
v 1 2.9 0.1
v 1.3 2.9 0.1
v 1.4 2.9 0.1
v 1.5 2.9 0.1
v -1.3 2.9 0
v -1.2 2.9 0
v -0.9 2.9 0
v -0.8 2.9 0
v -0.7 2.9 0
v 0.8 2.9 0
v 1 2.9 0
v 1.3 2.9 0
v 1.4 2.9 0
v -1.3 3 0.2
v -1.2 3 0.2
v -0.9 3 0.2
v -0.8 3 0.2
v -0.7 3 0.2
v 0.8 3 0.2
v 1 3 0.2
v 1.3 3 0.2
v 1.4 3 0.2
v -1.3 3 0.1
v -1.2 3 0.1
v -0.9 3 0.1
v -0.8 3 0.1
v -0.7 3 0.1
v 0.8 3 0.1
v 1 3 0.1
v 1.3 3 0.1
v 1.4 3 0.1

# faces
f 3/1/1 2/1/1 1/1/1
f 4/1/1 2/1/1 3/1/1
f 8/2/1 6/2/1 5/2/1
f 9/2/1 6/2/1 8/2/1
f 11/2/1 8/2/1 7/2/1
f 12/2/1 8/2/1 11/2/1
f 13/2/1 10/2/1 9/2/1
f 14/2/1 10/2/1 13/2/1
f 15/1/1 13/1/1 12/1/1
f 16/1/1 13/1/1 15/1/1
f 19/4/1 18/4/1 17/4/1
f 22/4/1 19/4/1 17/4/1
f 23/4/1 19/4/1 22/4/1
f 24/4/1 21/4/1 20/4/1
f 25/4/1 21/4/1 24/4/1
f 26/4/1 24/4/1 23/4/1
f 27/4/1 24/4/1 26/4/1
f 30/9/1 29/9/1 28/9/1
f 31/9/1 29/9/1 30/9/1
f 32/11/1 31/11/1 30/11/1
f 33/11/1 31/11/1 32/11/1
f 36/4/1 35/4/1 34/4/1
f 37/4/1 36/4/1 34/4/1
f 38/4/1 37/4/1 34/4/1
f 39/4/1 38/4/1 34/4/1
f 40/4/1 39/4/1 34/4/1
f 41/4/1 40/4/1 34/4/1
f 42/4/1 40/4/1 41/4/1
f 45/5/1 44/5/1 43/5/1
f 46/5/1 44/5/1 45/5/1
f 49/8/1 48/8/1 47/8/1
f 50/8/1 49/8/1 47/8/1
f 51/8/1 49/8/1 50/8/1
f 54/12/1 53/12/1 52/12/1
f 55/12/1 53/12/1 54/12/1
f 60/5/1 57/5/1 56/5/1
f 61/5/1 57/5/1 60/5/1
f 62/5/1 59/5/1 58/5/1
f 63/5/1 59/5/1 62/5/1
f 64/5/1 62/5/1 61/5/1
f 65/5/1 62/5/1 64/5/1
f 69/2/1 67/2/1 66/2/1
f 70/2/1 67/2/1 69/2/1
f 72/2/1 69/2/1 68/2/1
f 73/2/1 69/2/1 72/2/1
f 74/2/1 71/2/1 70/2/1
f 75/2/1 71/2/1 74/2/1
f 76/1/1 74/1/1 73/1/1
f 77/1/1 74/1/1 76/1/1
f 78/2/2 79/2/2 81/2/2
f 81/2/2 79/2/2 82/2/2
f 80/2/2 81/2/2 84/2/2
f 84/2/2 81/2/2 85/2/2
f 82/2/2 83/2/2 86/2/2
f 86/2/2 83/2/2 87/2/2
f 85/1/2 86/1/2 88/1/2
f 88/1/2 86/1/2 89/1/2
f 90/8/2 91/8/2 92/8/2
f 90/8/2 92/8/2 93/8/2
f 90/8/2 93/8/2 96/8/2
f 96/8/2 93/8/2 97/8/2
f 94/8/2 95/8/2 98/8/2
f 98/8/2 95/8/2 99/8/2
f 97/8/2 98/8/2 100/8/2
f 100/8/2 98/8/2 101/8/2
f 102/6/2 103/6/2 104/6/2
f 104/6/2 103/6/2 105/6/2
f 106/13/2 107/13/2 108/13/2
f 108/13/2 107/13/2 109/13/2
f 108/6/2 109/6/2 110/6/2
f 110/6/2 109/6/2 111/6/2
f 110/11/2 111/11/2 112/11/2
f 112/11/2 111/11/2 113/11/2
f 112/10/2 113/10/2 114/10/2
f 114/10/2 113/10/2 115/10/2
f 114/5/2 115/5/2 116/5/2
f 116/5/2 115/5/2 117/5/2
f 118/8/2 119/8/2 120/8/2
f 118/8/2 120/8/2 121/8/2
f 121/8/2 120/8/2 122/8/2
f 123/5/2 124/5/2 125/5/2
f 125/5/2 124/5/2 126/5/2
f 127/5/2 128/5/2 129/5/2
f 127/5/2 129/5/2 132/5/2
f 132/5/2 129/5/2 133/5/2
f 130/5/2 131/5/2 134/5/2
f 134/5/2 131/5/2 135/5/2
f 133/5/2 134/5/2 136/5/2
f 136/5/2 134/5/2 137/5/2
f 138/2/2 139/2/2 141/2/2
f 141/2/2 139/2/2 142/2/2
f 140/2/2 141/2/2 144/2/2
f 144/2/2 141/2/2 145/2/2
f 142/2/2 143/2/2 146/2/2
f 146/2/2 143/2/2 147/2/2
f 145/1/2 146/1/2 148/1/2
f 148/1/2 146/1/2 149/1/2
f 150/1/2 151/1/2 152/1/2
f 152/1/2 151/1/2 153/1/2
f 156/2/3 155/2/3 154/2/3
f 157/2/3 155/2/3 156/2/3
f 160/4/3 159/4/3 158/4/3
f 161/4/3 159/4/3 160/4/3
f 162/8/3 161/8/3 160/8/3
f 163/8/3 161/8/3 162/8/3
f 166/4/3 165/4/3 164/4/3
f 167/4/3 165/4/3 166/4/3
f 168/8/3 167/8/3 166/8/3
f 169/8/3 167/8/3 168/8/3
f 170/4/3 169/4/3 168/4/3
f 171/4/3 169/4/3 170/4/3
f 172/5/3 171/5/3 170/5/3
f 173/5/3 171/5/3 172/5/3
f 174/8/3 173/8/3 172/8/3
f 175/8/3 173/8/3 174/8/3
f 178/8/3 177/8/3 176/8/3
f 179/8/3 177/8/3 178/8/3
f 180/7/3 179/7/3 178/7/3
f 181/7/3 179/7/3 180/7/3
f 183/4/3 181/4/3 180/4/3
f 184/12/3 182/12/3 181/12/3
f 184/4/3 181/4/3 183/4/3
f 185/12/3 182/12/3 184/12/3
f 187/8/3 184/8/3 183/8/3
f 188/5/3 186/5/3 185/5/3
f 188/8/3 184/8/3 187/8/3
f 188/5/3 185/5/3 184/5/3
f 189/5/3 188/5/3 187/5/3
f 190/5/3 186/5/3 188/5/3
f 190/5/3 188/5/3 189/5/3
f 193/2/3 192/2/3 191/2/3
f 194/2/3 192/2/3 193/2/3
f 198/1/3 196/1/3 195/1/3
f 199/1/3 196/1/3 198/1/3
f 201/2/3 198/2/3 197/2/3
f 202/2/3 198/2/3 201/2/3
f 203/1/3 200/1/3 199/1/3
f 204/1/3 200/1/3 203/1/3
f 205/3/3 203/3/3 202/3/3
f 206/3/3 203/3/3 205/3/3
f 208/4/3 207/4/3 206/4/3
f 209/4/3 207/4/3 208/4/3
f 213/8/3 209/8/3 208/8/3
f 214/8/3 209/8/3 213/8/3
f 215/9/3 211/9/3 210/9/3
f 216/9/3 211/9/3 215/9/3
f 217/9/3 211/9/3 216/9/3
f 218/11/3 212/11/3 211/11/3
f 218/9/3 211/9/3 217/9/3
f 219/3/3 213/3/3 212/3/3
f 219/11/3 212/11/3 218/11/3
f 220/11/3 216/11/3 215/11/3
f 221/10/3 217/10/3 216/10/3
f 221/11/3 216/11/3 220/11/3
f 222/5/3 218/5/3 217/5/3
f 222/10/3 217/10/3 221/10/3
f 223/5/3 218/5/3 222/5/3
f 224/5/3 218/5/3 223/5/3
f 225/5/3 218/5/3 224/5/3
f 226/5/3 218/5/3 225/5/3
f 227/5/3 218/5/3 226/5/3
f 228/6/3 219/6/3 218/6/3
f 228/5/3 218/5/3 227/5/3
f 229/3/3 213/3/3 219/3/3
f 229/6/3 219/6/3 228/6/3
f 230/6/3 221/6/3 220/6/3
f 231/11/3 222/11/3 221/11/3
f 231/6/3 221/6/3 230/6/3
f 231/11/3 223/11/3 222/11/3
f 232/11/3 223/11/3 231/11/3
f 233/10/3 224/10/3 223/10/3
f 233/11/3 223/11/3 232/11/3
f 234/5/3 225/5/3 224/5/3
f 234/10/3 224/10/3 233/10/3
f 235/9/3 226/9/3 225/9/3
f 235/5/3 225/5/3 234/5/3
f 236/8/3 227/8/3 226/8/3
f 236/9/3 226/9/3 235/9/3
f 237/4/3 228/4/3 227/4/3
f 237/8/3 227/8/3 236/8/3
f 238/4/3 228/4/3 237/4/3
f 239/13/3 231/13/3 230/13/3
f 240/6/3 232/6/3 231/6/3
f 240/13/3 231/13/3 239/13/3
f 241/11/3 234/11/3 233/11/3
f 241/6/3 232/6/3 240/6/3
f 241/11/3 233/11/3 232/11/3
f 242/10/3 235/10/3 234/10/3
f 242/11/3 234/11/3 241/11/3
f 243/5/3 236/5/3 235/5/3
f 243/10/3 235/10/3 242/10/3
f 243/5/3 238/5/3 237/5/3
f 243/5/3 237/5/3 236/5/3
f 244/5/3 238/5/3 243/5/3
f 247/5/3 246/5/3 245/5/3
f 248/5/3 246/5/3 247/5/3
f 249/11/3 248/11/3 247/11/3
f 250/11/3 248/11/3 249/11/3
f 251/5/3 250/5/3 249/5/3
f 252/5/3 250/5/3 251/5/3
f 253/3/3 213/3/3 229/3/3
f 254/3/3 213/3/3 253/3/3
f 255/3/3 213/3/3 254/3/3
f 258/5/3 256/5/3 255/5/3
f 259/5/3 256/5/3 258/5/3
f 261/3/3 258/3/3 257/3/3
f 262/3/3 258/3/3 261/3/3
f 264/2/3 261/2/3 260/2/3
f 265/2/3 261/2/3 264/2/3
f 266/1/3 263/1/3 262/1/3
f 267/1/3 263/1/3 266/1/3
f 268/1/3 266/1/3 265/1/3
f 269/1/3 266/1/3 268/1/3
f 270/4/4 271/4/4 272/4/4
f 272/4/4 271/4/4 273/4/4
f 272/8/4 273/8/4 274/8/4
f 274/8/4 273/8/4 275/8/4
f 275/8/4 273/8/4 276/8/4
f 277/4/4 278/4/4 284/4/4
f 282/4/4 283/4/4 284/4/4
f 281/4/4 282/4/4 284/4/4
f 280/4/4 281/4/4 284/4/4
f 279/4/4 280/4/4 284/4/4
f 278/4/4 279/4/4 284/4/4
f 284/4/4 283/4/4 285/4/4
f 284/8/4 285/8/4 286/8/4
f 286/8/4 285/8/4 287/8/4
f 286/4/4 287/4/4 288/4/4
f 288/4/4 287/4/4 289/4/4
f 288/5/4 289/5/4 290/5/4
f 290/5/4 289/5/4 291/5/4
f 290/8/4 291/8/4 292/8/4
f 292/8/4 291/8/4 293/8/4
f 293/8/4 291/8/4 294/8/4
f 295/8/4 296/8/4 298/8/4
f 296/8/4 297/8/4 298/8/4
f 298/8/4 297/8/4 299/8/4
f 298/7/4 299/7/4 300/7/4
f 300/7/4 299/7/4 301/7/4
f 300/4/4 301/4/4 303/4/4
f 301/12/4 302/12/4 304/12/4
f 303/4/4 301/4/4 304/4/4
f 304/12/4 302/12/4 305/12/4
f 303/8/4 304/8/4 306/8/4
f 304/5/4 305/5/4 307/5/4
f 306/8/4 304/8/4 307/8/4
f 306/5/4 307/5/4 308/5/4
f 307/5/4 305/5/4 309/5/4
f 308/5/4 307/5/4 309/5/4
f 310/1/4 311/1/4 313/1/4
f 313/1/4 311/1/4 314/1/4
f 312/2/4 313/2/4 316/2/4
f 316/2/4 313/2/4 317/2/4
f 314/1/4 315/1/4 318/1/4
f 318/1/4 315/1/4 319/1/4
f 317/3/4 318/3/4 320/3/4
f 320/3/4 318/3/4 321/3/4
f 321/4/4 322/4/4 323/4/4
f 323/4/4 322/4/4 324/4/4
f 323/8/4 324/8/4 328/8/4
f 328/8/4 324/8/4 329/8/4
f 325/9/4 326/9/4 330/9/4
f 330/9/4 326/9/4 331/9/4
f 331/9/4 326/9/4 332/9/4
f 326/11/4 327/11/4 333/11/4
f 332/9/4 326/9/4 333/9/4
f 327/3/4 328/3/4 334/3/4
f 333/11/4 327/11/4 334/11/4
f 330/11/4 331/11/4 335/11/4
f 331/10/4 332/10/4 336/10/4
f 335/11/4 331/11/4 336/11/4
f 332/5/4 333/5/4 337/5/4
f 336/10/4 332/10/4 337/10/4
f 337/5/4 333/5/4 338/5/4
f 338/5/4 333/5/4 339/5/4
f 339/5/4 333/5/4 340/5/4
f 340/5/4 333/5/4 341/5/4
f 341/5/4 333/5/4 342/5/4
f 333/6/4 334/6/4 343/6/4
f 342/5/4 333/5/4 343/5/4
f 334/3/4 328/3/4 344/3/4
f 343/6/4 334/6/4 344/6/4
f 335/6/4 336/6/4 345/6/4
f 336/11/4 337/11/4 346/11/4
f 345/6/4 336/6/4 346/6/4
f 337/11/4 338/11/4 346/11/4
f 346/11/4 338/11/4 347/11/4
f 338/10/4 339/10/4 348/10/4
f 347/11/4 338/11/4 348/11/4
f 339/5/4 340/5/4 349/5/4
f 348/10/4 339/10/4 349/10/4
f 340/9/4 341/9/4 350/9/4
f 349/5/4 340/5/4 350/5/4
f 341/8/4 342/8/4 351/8/4
f 350/9/4 341/9/4 351/9/4
f 342/4/4 343/4/4 352/4/4
f 351/8/4 342/8/4 352/8/4
f 352/4/4 343/4/4 353/4/4
f 345/13/4 346/13/4 354/13/4
f 346/6/4 347/6/4 355/6/4
f 354/13/4 346/13/4 355/13/4
f 348/11/4 349/11/4 356/11/4
f 355/6/4 347/6/4 356/6/4
f 347/11/4 348/11/4 356/11/4
f 349/10/4 350/10/4 357/10/4
f 356/11/4 349/11/4 357/11/4
f 350/5/4 351/5/4 358/5/4
f 357/10/4 350/10/4 358/10/4
f 352/5/4 353/5/4 358/5/4
f 351/5/4 352/5/4 358/5/4
f 358/5/4 353/5/4 359/5/4
f 360/5/4 361/5/4 362/5/4
f 362/5/4 361/5/4 363/5/4
f 362/11/4 363/11/4 364/11/4
f 364/11/4 363/11/4 365/11/4
f 364/5/4 365/5/4 366/5/4
f 366/5/4 365/5/4 367/5/4
f 344/3/4 328/3/4 368/3/4
f 368/3/4 328/3/4 369/3/4
f 369/5/4 370/5/4 372/5/4
f 372/5/4 370/5/4 373/5/4
f 371/3/4 372/3/4 375/3/4
f 375/3/4 372/3/4 376/3/4
f 374/2/4 375/2/4 378/2/4
f 378/2/4 375/2/4 379/2/4
f 376/1/4 377/1/4 380/1/4
f 380/1/4 377/1/4 381/1/4
f 379/1/4 380/1/4 382/1/4
f 382/1/4 380/1/4 383/1/4
f 384/2/4 385/2/4 386/2/4
f 386/2/4 385/2/4 387/2/4
f 388/4/4 389/4/4 390/4/4
f 390/4/4 389/4/4 391/4/4
f 390/8/4 391/8/4 392/8/4
f 392/8/4 391/8/4 393/8/4
f 394/5/4 395/5/4 396/5/4
f 396/5/4 395/5/4 397/5/4
f 398/2/4 399/2/4 400/2/4
f 400/2/4 399/2/4 401/2/4
f 414/4/5 403/4/5 402/4/5
f 415/8/5 404/8/5 403/8/5
f 415/4/5 403/4/5 414/4/5
f 416/4/5 405/4/5 404/4/5
f 416/8/5 404/8/5 415/8/5
f 417/5/5 406/5/5 405/5/5
f 417/4/5 405/4/5 416/4/5
f 418/8/5 407/8/5 406/8/5
f 418/5/5 406/5/5 417/5/5
f 419/8/5 407/8/5 418/8/5
f 420/8/5 409/8/5 408/8/5
f 421/7/5 410/7/5 409/7/5
f 421/8/5 409/8/5 420/8/5
f 422/4/5 411/4/5 410/4/5
f 422/7/5 410/7/5 421/7/5
f 423/8/5 412/8/5 411/8/5
f 423/4/5 411/4/5 422/4/5
f 424/5/5 413/5/5 412/5/5
f 424/8/5 412/8/5 423/8/5
f 425/5/5 413/5/5 424/5/5
f 429/4/5 427/4/5 426/4/5
f 430/8/5 428/8/5 427/8/5
f 430/4/5 427/4/5 429/4/5
f 431/8/5 428/8/5 430/8/5
f 440/9/5 432/9/5 431/9/5
f 441/11/5 433/11/5 432/11/5
f 441/9/5 432/9/5 440/9/5
f 442/6/5 434/6/5 433/6/5
f 442/11/5 433/11/5 441/11/5
f 443/13/5 435/13/5 434/13/5
f 443/6/5 434/6/5 442/6/5
f 444/13/5 435/13/5 443/13/5
f 445/5/5 437/5/5 436/5/5
f 446/11/5 438/11/5 437/11/5
f 446/5/5 437/5/5 445/5/5
f 447/5/5 439/5/5 438/5/5
f 447/11/5 438/11/5 446/11/5
f 448/5/5 439/5/5 447/5/5
f 453/2/5 450/2/5 449/2/5
f 454/2/5 450/2/5 453/2/5
f 455/2/5 452/2/5 451/2/5
f 456/2/5 452/2/5 455/2/5
f 462/2/5 458/2/5 457/2/5
f 463/2/5 458/2/5 462/2/5
f 471/2/5 460/2/5 459/2/5
f 472/2/5 460/2/5 471/2/5
f 474/1/5 462/1/5 461/1/5
f 475/1/5 462/1/5 474/1/5
f 476/3/5 464/3/5 463/3/5
f 477/4/5 465/4/5 464/4/5
f 477/3/5 464/3/5 476/3/5
f 478/8/5 466/8/5 465/8/5
f 479/3/5 468/3/5 467/3/5
f 479/3/5 469/3/5 468/3/5
f 480/5/5 470/5/5 469/5/5
f 480/3/5 469/3/5 479/3/5
f 481/3/5 471/3/5 470/3/5
f 481/5/5 470/5/5 480/5/5
f 482/3/5 471/3/5 481/3/5
f 483/1/5 473/1/5 472/1/5
f 484/1/5 473/1/5 483/1/5
f 485/2/5 476/2/5 475/2/5
f 486/2/5 476/2/5 485/2/5
f 487/4/5 465/4/5 477/4/5
f 488/8/5 478/8/5 465/8/5
f 488/4/5 465/4/5 487/4/5
f 489/8/5 478/8/5 488/8/5
f 490/5/5 481/5/5 480/5/5
f 491/5/5 481/5/5 490/5/5
f 492/2/5 483/2/5 482/2/5
f 493/2/5 483/2/5 492/2/5
f 494/4/6 495/4/6 505/4/6
f 495/8/6 496/8/6 506/8/6
f 505/4/6 495/4/6 506/4/6
f 496/4/6 497/4/6 507/4/6
f 506/8/6 496/8/6 507/8/6
f 497/5/6 498/5/6 508/5/6
f 507/4/6 497/4/6 508/4/6
f 498/8/6 499/8/6 509/8/6
f 508/5/6 498/5/6 509/5/6
f 509/8/6 499/8/6 510/8/6
f 500/8/6 501/8/6 513/8/6
f 501/7/6 502/7/6 514/7/6
f 513/8/6 501/8/6 514/8/6
f 514/7/6 502/7/6 515/7/6
f 503/4/6 504/4/6 516/4/6
f 504/5/6 505/5/6 517/5/6
f 516/4/6 504/4/6 517/4/6
f 517/5/6 505/5/6 518/5/6
f 510/5/6 511/5/6 519/5/6
f 511/11/6 512/11/6 520/11/6
f 519/5/6 511/5/6 520/5/6
f 512/5/6 513/5/6 521/5/6
f 520/11/6 512/11/6 521/11/6
f 521/5/6 513/5/6 522/5/6
f 523/12/6 524/12/6 525/12/6
f 525/12/6 524/12/6 526/12/6
f 527/2/6 528/2/6 537/2/6
f 537/2/6 528/2/6 538/2/6
f 529/4/6 530/4/6 539/4/6
f 530/8/6 531/8/6 540/8/6
f 539/4/6 530/4/6 540/4/6
f 540/8/6 531/8/6 541/8/6
f 532/5/6 533/5/6 542/5/6
f 542/5/6 533/5/6 543/5/6
f 534/2/6 535/2/6 544/2/6
f 544/2/6 535/2/6 545/2/6
f 536/1/6 537/1/6 547/1/6
f 547/1/6 537/1/6 548/1/6
f 538/3/6 539/3/6 549/3/6
f 549/3/6 539/3/6 550/3/6
f 541/3/6 542/3/6 552/3/6
f 552/3/6 542/3/6 553/3/6
f 543/3/6 544/3/6 554/3/6
f 554/3/6 544/3/6 555/3/6
f 545/1/6 546/1/6 556/1/6
f 556/1/6 546/1/6 557/1/6
f 548/2/6 549/2/6 558/2/6
f 558/2/6 549/2/6 559/2/6
f 550/4/6 551/4/6 560/4/6
f 551/8/6 552/8/6 561/8/6
f 560/4/6 551/4/6 561/4/6
f 561/8/6 552/8/6 562/8/6
f 553/5/6 554/5/6 563/5/6
f 563/5/6 554/5/6 564/5/6
f 555/2/6 556/2/6 565/2/6
f 565/2/6 556/2/6 566/2/6
f 567/1/6 568/1/6 576/1/6
f 576/1/6 568/1/6 577/1/6
f 569/4/6 570/4/6 578/4/6
f 570/8/6 571/8/6 579/8/6
f 578/4/6 570/4/6 579/4/6
f 579/8/6 571/8/6 580/8/6
f 572/5/6 573/5/6 581/5/6
f 581/5/6 573/5/6 582/5/6
f 574/1/6 575/1/6 583/1/6
f 583/1/6 575/1/6 584/1/6
